<svg width="24" height="14" viewBox="0 0 24 14" fill="none" xmlns="http://www.w3.org/2000/svg">
<path fill-rule="evenodd" clip-rule="evenodd" d="M21.9372 0H20.5763C19.8241 0 19.2144 0.587637 19.2144 1.31247V12.687C19.2144 13.4119 19.8241 13.9995 20.5763 13.9995H21.9372C22.6885 13.9995 23.2981 13.4119 23.2981 12.687V1.31247C23.2981 0.587637 22.6885 0 21.9372 0ZM14.1712 3.06254H15.5321C16.2833 3.06254 16.893 3.65018 16.893 4.37501V12.6872C16.893 13.4121 16.2833 13.9996 15.5321 13.9996H14.1712C13.4189 13.9996 12.8103 13.4121 12.8103 12.6872V4.37501C12.8103 3.65018 13.4189 3.06254 14.1712 3.06254ZM9.12696 6.12467H7.76605C7.01381 6.12467 6.40514 6.71231 6.40514 7.43715V12.6869C6.40514 13.4118 7.01381 13.9994 7.76605 13.9994H9.12696C9.8792 13.9994 10.4878 13.4118 10.4878 12.6869V7.43715C10.4878 6.71231 9.8792 6.12467 9.12696 6.12467ZM2.72179 8.74952H1.36091C0.609685 8.74952 0 9.33716 0 10.062V12.6869C0 13.4118 0.609685 13.9994 1.36091 13.9994H2.72179C3.47403 13.9994 4.08271 13.4118 4.08271 12.6869V10.062C4.08271 9.33716 3.47403 8.74952 2.72179 8.74952Z" fill="white"/>
</svg>
