<svg width="20" height="18" viewBox="0 0 20 18" fill="none" xmlns="http://www.w3.org/2000/svg">
<path d="M10.8279 0.483698L13.2042 5.01904C13.2704 5.14524 13.3681 5.2544 13.489 5.33711C13.6098 5.41983 13.7502 5.47362 13.8981 5.49384L19.211 6.22123C19.3812 6.24451 19.5411 6.3122 19.6725 6.41662C19.804 6.52105 19.9018 6.65806 19.9549 6.81214C20.0081 6.96622 20.0143 7.13123 19.9731 7.2885C19.9318 7.44577 19.8447 7.58902 19.7215 7.70205L15.8764 11.2322C15.6589 11.4319 15.5603 11.7192 15.611 12.0004L16.5186 16.9854C16.5476 17.145 16.5287 17.3091 16.4639 17.4591C16.3991 17.6091 16.291 17.7391 16.1519 17.8343C16.0128 17.9295 15.8483 17.9861 15.6768 17.9977C15.5053 18.0094 15.3338 17.9757 15.1816 17.9003L10.4289 15.5462C10.2966 15.4809 10.1494 15.4467 10 15.4467C9.85058 15.4467 9.70339 15.4809 9.57108 15.5462L4.81838 17.9003C4.66621 17.9757 4.49469 18.0094 4.32322 17.9977C4.15175 17.9861 3.98716 17.9295 3.84806 17.8343C3.70896 17.7391 3.60091 17.6091 3.53611 17.4591C3.47132 17.3091 3.45237 17.145 3.4814 16.9854L4.389 12.0004C4.41427 11.8617 4.40331 11.7193 4.35708 11.5854C4.31084 11.4516 4.23072 11.3304 4.12363 11.2322L0.278537 7.70205C0.15534 7.58902 0.0681795 7.44577 0.0269168 7.2885C-0.014346 7.13123 -0.00806459 6.96622 0.0450504 6.81214C0.0981654 6.65806 0.195994 6.52105 0.327469 6.41662C0.458944 6.3122 0.618818 6.24451 0.789004 6.22123L6.10192 5.49384C6.24977 5.47362 6.39018 5.41983 6.51105 5.33711C6.63192 5.2544 6.72963 5.14524 6.79575 5.01904L9.1721 0.483698C9.51303 -0.161233 10.4897 -0.161233 10.8279 0.483698Z" fill="#FFC100"/>
</svg>
