<svg width="26" height="18" viewBox="0 0 26 18" fill="none" xmlns="http://www.w3.org/2000/svg">
<path d="M25.5444 8.36006C24.7218 6.93336 20.1975 -0.225874 12.5113 0.00548328C5.40345 0.185428 1.29043 6.43208 0.1722 8.36006C0.0593899 8.55545 0 8.7771 0 9.00272C0 9.22834 0.0593899 9.44999 0.1722 9.64538C0.981952 11.0464 5.31348 18 12.884 18H13.2053C20.3132 17.82 24.439 11.5734 25.5444 9.64538C25.6572 9.44999 25.7166 9.22834 25.7166 9.00272C25.7166 8.7771 25.6572 8.55545 25.5444 8.36006ZM13.1411 15.4293C7.60135 15.5579 3.9896 10.815 2.85852 9.00272C4.14384 6.93336 7.49852 2.70465 12.6398 2.57612C18.1538 2.43474 21.7784 7.19042 22.9224 9.00272C21.5985 11.0721 18.2824 15.3008 13.1411 15.4293Z" fill="black"/>
<path d="M12.8582 4.50414C11.9685 4.50414 11.0987 4.76798 10.3589 5.2623C9.61913 5.75661 9.04253 6.4592 8.70204 7.28121C8.36155 8.10323 8.27246 9.00775 8.44604 9.8804C8.61962 10.753 9.04807 11.5546 9.67722 12.1838C10.3064 12.8129 11.1079 13.2414 11.9806 13.4149C12.8532 13.5885 13.7578 13.4994 14.5798 13.1589C15.4018 12.8185 16.1044 12.2419 16.5987 11.5021C17.093 10.7623 17.3568 9.8925 17.3568 9.00276C17.3568 7.80965 16.8829 6.66541 16.0392 5.82176C15.1956 4.9781 14.0513 4.50414 12.8582 4.50414ZM12.8582 10.9307C12.4769 10.9307 12.1041 10.8177 11.7871 10.6058C11.47 10.394 11.2229 10.0929 11.077 9.74057C10.9311 9.38827 10.8929 9.00062 10.9673 8.62663C11.0417 8.25264 11.2253 7.90911 11.4949 7.63947C11.7646 7.36984 12.1081 7.18622 12.4821 7.11183C12.8561 7.03744 13.2437 7.07562 13.596 7.22154C13.9483 7.36746 14.2494 7.61458 14.4613 7.93163C14.6731 8.24869 14.7862 8.62144 14.7862 9.00276C14.7862 9.51409 14.5831 10.0045 14.2215 10.366C13.8599 10.7276 13.3696 10.9307 12.8582 10.9307Z" fill="black"/>
</svg>
