<svg width="17" height="17" viewBox="0 0 17 17" fill="none" xmlns="http://www.w3.org/2000/svg">
<path opacity="0.5" d="M12.4435 0.312749C12.2451 0.113295 11.9756 0.000800055 11.6943 4.25092e-06C11.413 -0.000791553 11.1428 0.110177 10.9433 0.308506C10.8381 0.4158 10.7567 0.544153 10.7046 0.68513C9.82194 2.52688 8.85014 3.56551 7.62372 4.17872C6.24772 4.8577 4.66802 5.32981 2.12183 5.32981C1.91238 5.3308 1.70786 5.39339 1.53374 5.50979C1.35962 5.62618 1.22359 5.79124 1.1426 5.98439C1.06243 6.17832 1.04151 6.39166 1.08248 6.59748C1.12346 6.80329 1.22449 6.99235 1.37282 7.14079L4.81336 10.5813L0 16.9999L6.41853 12.1865L9.85801 15.626C9.95654 15.7253 10.0742 15.8036 10.2039 15.8562C10.3333 15.9103 10.4712 15.9389 10.6091 15.9389C10.7471 15.9389 10.885 15.9103 11.0144 15.8562C11.2084 15.7766 11.3744 15.6411 11.4911 15.4669C11.6079 15.2927 11.6702 15.0877 11.67 14.878C11.67 12.3318 12.1411 10.7521 12.819 9.39735C13.4312 8.17094 14.4698 7.19914 16.3126 6.31646C16.4535 6.26484 16.5816 6.18342 16.6882 6.07775C16.8865 5.87824 16.9975 5.60812 16.9967 5.32681C16.9959 5.04549 16.8834 4.77601 16.6839 4.57762L12.4435 0.312749Z" fill="black"/>
</svg>
