<svg width="25" height="25" viewBox="0 0 25 25" fill="none" xmlns="http://www.w3.org/2000/svg">
<path opacity="0.8" d="M12.5 0C5.625 0 6.51926e-08 5.625 6.51926e-08 12.5C6.51926e-08 15.375 1 18.125 2.875 20.375L0.375 22.875C-0.125 23.375 -0.125 24.125 0.375 24.625C0.625 24.875 0.875 25 1.25 25H12.5C19.375 25 25 19.375 25 12.5C25 5.625 19.375 0 12.5 0ZM7.5 13.75C6.75 13.75 6.25 13.25 6.25 12.5C6.25 11.75 6.75 11.25 7.5 11.25C8.25 11.25 8.75 11.75 8.75 12.5C8.75 13.25 8.25 13.75 7.5 13.75ZM12.5 13.75C11.75 13.75 11.25 13.25 11.25 12.5C11.25 11.75 11.75 11.25 12.5 11.25C13.25 11.25 13.75 11.75 13.75 12.5C13.75 13.25 13.25 13.75 12.5 13.75ZM17.5 13.75C16.75 13.75 16.25 13.25 16.25 12.5C16.25 11.75 16.75 11.25 17.5 11.25C18.25 11.25 18.75 11.75 18.75 12.5C18.75 13.25 18.25 13.75 17.5 13.75Z" fill="white"/>
</svg>
