<svg width="31" height="32" viewBox="0 0 31 32" fill="none" xmlns="http://www.w3.org/2000/svg">
<path d="M23.6306 3.32276L23.0908 1.94581C23.0908 1.94581 22.869 1.30232 22.7598 1.10469C22.7084 1.0115 22.5919 0.877339 22.4907 0.776116C21.9572 0.242686 21.2093 0.0153351 20.5449 0.227422C20.1328 0.359173 19.7416 0.542338 19.7416 0.542338C19.7416 0.542338 19.7391 0.539928 19.7367 0.542338L18.3646 1.14245C17.9163 1.33766 17.4568 1.48468 16.9852 1.58349C16.0059 1.79076 14.9945 1.79076 14.02 1.58349C13.5485 1.48468 13.0841 1.33766 12.6358 1.14245L11.3489 0.581703C11.3489 0.581703 10.6242 0.228225 10.3672 0.151906C9.7309 -0.0368834 9.01511 0.243489 8.5098 0.749605C8.42223 0.837171 8.28405 1.02194 8.22862 1.12718C8.11133 1.35052 7.90487 1.96991 7.90487 1.96991L7.37385 3.32357C7.1947 3.77907 6.97137 4.20887 6.70947 4.61296C7.08866 4.53262 7.51202 4.58805 7.97155 4.7897L10.0201 5.68384L11.7489 6.43819L11.8156 6.46791L13.8803 7.36446C14.915 7.81514 16.0919 7.81514 17.1242 7.36687L19.1888 6.4655L19.2555 6.43578L20.9844 5.68143L23.0329 4.78729C23.4948 4.58725 23.9182 4.5278 24.2974 4.61215C24.0323 4.20726 23.8098 3.77746 23.6306 3.32276Z" fill="#1E18CF"/>
<path d="M27.665 23.6461L29.042 23.1062L29.8831 22.7752H29.8879L29.8903 22.7728C30.0052 22.6949 30.1113 22.6073 30.2125 22.5061C30.7459 21.9727 30.9363 21.2304 30.7917 20.5475C30.7941 20.5451 30.7917 20.5427 30.7917 20.5427L30.7893 20.5403L30.4471 19.7562C30.4471 19.7562 30.4495 19.7538 30.4471 19.7514L29.8469 18.3792C29.6517 17.931 29.5047 17.4715 29.4059 16.9999C29.1986 16.0206 29.1986 15.0092 29.4059 14.0347C29.5047 13.5631 29.6517 13.0988 29.8469 12.6505L30.4077 11.3635L30.8375 10.3818C30.9451 9.72627 30.7459 9.02976 30.2398 8.52445C30.1522 8.43688 30.0582 8.35655 29.9594 8.28987L29.0195 7.91952L27.6658 7.3885C27.2103 7.20935 26.7805 6.98602 26.3764 6.72412C26.4568 7.10331 26.4013 7.52668 26.1997 7.9862L25.3056 10.0348L24.5512 11.7636L24.5215 11.8303L23.6249 13.8949C23.1743 14.9296 23.1743 16.1065 23.6225 17.1389L24.5239 19.2035L24.5536 19.2702L25.308 20.999L26.2021 23.0476C26.4021 23.5095 26.4616 23.9329 26.3764 24.3121C26.7797 24.0485 27.2095 23.826 27.665 23.6461Z" fill="#1E18CF"/>
<path d="M7.33769 27.6847L7.87754 29.0617C7.87754 29.0617 8.09927 29.7051 8.20853 29.9028C8.25994 29.996 8.37643 30.1301 8.47766 30.2313C9.01109 30.7648 9.75901 30.9921 10.4234 30.78C10.8355 30.6483 11.2267 30.4651 11.2267 30.4651C11.2267 30.4651 11.2292 30.4675 11.2316 30.4651L12.6037 29.865C13.052 29.6698 13.5115 29.5228 13.9831 29.424C14.9624 29.2167 15.9738 29.2167 16.9483 29.424C17.4198 29.5228 17.8842 29.6698 18.3325 29.865L19.6194 30.4258C19.6194 30.4258 20.3441 30.7792 20.6011 30.8556C21.2374 31.0443 21.9532 30.764 22.4585 30.2579C22.5461 30.1703 22.6842 29.9855 22.7397 29.8803C22.857 29.6569 23.0634 29.0376 23.0634 29.0376L23.5945 27.6839C23.7736 27.2284 23.9969 26.7986 24.2588 26.3945C23.8797 26.4748 23.4563 26.4194 22.9968 26.2178L20.9482 25.3236L19.2194 24.5693L19.1527 24.5395L17.0881 23.643C16.0533 23.1923 14.8764 23.1923 13.8441 23.6406L11.7795 24.542L11.7128 24.5717L9.98395 25.326L7.93539 26.2202C7.47346 26.4202 7.05008 26.4797 6.6709 26.3945C6.9352 26.7994 7.15774 27.2292 7.33769 27.6847Z" fill="#1E18CF"/>
<path d="M3.30332 7.36032L1.92637 7.90018L1.08525 8.23116H1.08043L1.07802 8.23357C0.963138 8.3115 0.857094 8.39906 0.755871 8.50029C0.222441 9.03372 0.0320481 9.77602 0.176653 10.4589C0.174243 10.4613 0.176653 10.4637 0.176653 10.4637L0.17906 10.4661L0.521292 11.2502C0.521292 11.2502 0.518882 11.2526 0.521292 11.255L1.1214 12.6271C1.31662 13.0754 1.46363 13.5349 1.56245 14.0065C1.76971 14.9858 1.76971 15.9972 1.56245 16.9717C1.46363 17.4433 1.31662 17.9076 1.1214 18.3559L0.560655 19.6429L0.130861 20.6246C0.0232105 21.2801 0.222444 21.9766 0.72856 22.4819C0.816126 22.5695 0.910118 22.6498 1.00893 22.7165L1.94886 23.0869L3.30252 23.6179C3.75802 23.797 4.18782 24.0204 4.59191 24.2823C4.51157 23.9031 4.56701 23.4797 4.76865 23.0202L5.66279 20.9716L6.41714 19.2428L6.44687 19.1761L7.34341 17.1115C7.7941 16.0768 7.7941 14.8998 7.34582 13.8675L6.44446 11.8029L6.41473 11.7362L5.66038 10.0074L4.76624 7.95882C4.5662 7.49689 4.50675 7.07352 4.59191 6.69434C4.18782 6.95784 3.75802 7.18117 3.30332 7.36032Z" fill="#1E18CF"/>
<path d="M12.6224 1.00535L11.2551 0.408452C11.2551 0.408452 10.6381 0.107193 10.4188 0.044531C10.3159 0.0148068 10.1368 0.00195312 9.99218 0.00195312C9.23139 0.00195312 8.53568 0.373104 8.21273 0.998117C8.0127 1.38614 7.86408 1.79505 7.86408 1.79505C7.86408 1.79505 7.86086 1.79505 7.86086 1.79826L7.30976 3.20494C7.129 3.66366 6.90647 4.09667 6.64056 4.50317C6.08946 5.34911 5.36804 6.07052 4.52532 6.61841C4.11882 6.88433 3.6826 7.11007 3.22307 7.29083L1.90477 7.80899C1.90477 7.80899 1.13595 8.0733 0.898154 8.20264C0.309293 8.52237 0 9.23254 0 9.95396C0 10.0785 0.0337399 10.309 0.0690877 10.4239C0.144603 10.6673 0.43944 11.2562 0.43944 11.2562L1.02669 12.601C1.18576 12.9674 1.31269 13.3417 1.40909 13.7233C1.4356 13.8278 1.56333 13.8639 1.63564 13.7836C1.84531 13.553 2.13292 13.3634 2.49844 13.2212L4.59682 12.3978L6.36742 11.7029L6.43651 11.6764L8.54854 10.8433C9.60736 10.4271 10.4469 9.58763 10.8638 8.53121L11.6937 6.41597L11.7202 6.34688L12.4151 4.57628L13.2385 2.47791C13.3832 2.11238 13.5711 1.82397 13.8025 1.61429C13.8828 1.54199 13.8467 1.41426 13.7423 1.38775C13.3615 1.29134 12.9879 1.16441 12.6224 1.00535Z" fill="#FFC100"/>
<path d="M29.9958 12.6232L30.5927 11.2559L30.9566 10.4196L30.9599 10.4164V10.4131C30.9864 10.2758 30.9992 10.1376 30.9992 9.99298C30.9992 9.2322 30.6056 8.56621 30.0151 8.18301C30.0151 8.1798 30.0119 8.1798 30.0119 8.1798H30.0087L29.2053 7.86488C29.2053 7.86488 29.2053 7.86167 29.2021 7.86167L27.7954 7.31057C27.3367 7.12981 26.9037 6.90728 26.4972 6.64137C25.6513 6.09026 24.9299 5.36885 24.382 4.52612C24.1161 4.11962 23.8903 3.6834 23.7095 3.22388L23.1914 1.90557L22.805 0.917435C22.8001 0.904582 22.7937 0.893336 22.7857 0.882089C22.3944 0.347052 21.7606 0 21.0464 0C20.9219 0 20.7974 0.0096406 20.6793 0.032938L19.745 0.439437L18.4001 1.02669C18.0338 1.18576 17.6595 1.31269 17.2779 1.40909C17.1734 1.4356 17.1373 1.56334 17.2176 1.63564C17.4482 1.84531 17.6378 2.13292 17.78 2.49844L18.6034 4.59682L19.2983 6.36742L19.3248 6.43651L20.1579 8.54854C20.574 9.60737 21.4135 10.4469 22.47 10.8638L24.5852 11.6937L24.6543 11.7202L26.4249 12.4151L28.5233 13.2385C28.8888 13.3832 29.1772 13.5711 29.3869 13.8025C29.4592 13.8828 29.5869 13.8467 29.6134 13.7423C29.7098 13.3623 29.8368 12.9887 29.9958 12.6232Z" fill="#FF045F"/>
<path d="M18.3777 30.0017L19.745 30.5986C19.745 30.5986 20.362 30.8998 20.5813 30.9625C20.6842 30.9922 20.8633 31.0051 21.0079 31.0051C21.7687 31.0051 22.4644 30.6339 22.7874 30.0089C22.9874 29.6209 23.136 29.212 23.136 29.212C23.136 29.212 23.1392 29.212 23.1392 29.2088L23.6903 27.8021C23.8711 27.3434 24.0936 26.9104 24.3595 26.5039C24.9106 25.6579 25.632 24.9365 26.4748 24.3886C26.8813 24.1227 27.3175 23.897 27.777 23.7162L29.0953 23.198C29.0953 23.198 29.8649 22.9337 30.1019 22.8044C30.6908 22.4847 31.0001 21.7745 31.0001 21.0531C31.0001 20.9286 30.9663 20.698 30.931 20.5831C30.8555 20.3397 30.5607 19.7508 30.5607 19.7508L29.9734 18.406C29.8143 18.0397 29.6874 17.6653 29.591 17.2837C29.5645 17.1793 29.4368 17.1431 29.3644 17.2235C29.1548 17.454 28.8672 17.6436 28.5016 17.7858L26.4033 18.6093L24.6327 19.3042L24.5636 19.3307L22.4516 20.1638C21.3927 20.5799 20.5532 21.4194 20.1363 22.4758L19.3064 24.5911L19.2799 24.6602L18.585 26.4308L17.7615 28.5291C17.6169 28.8947 17.429 29.1831 17.1976 29.3927C17.1172 29.465 17.1534 29.5928 17.2578 29.6193C17.6386 29.7165 18.0122 29.8434 18.3777 30.0017Z" fill="#FFC100"/>
<path d="M1.00437 18.3833L0.407476 19.7506L0.043552 20.5869L0.0403404 20.5901V20.5933C0.0138295 20.7307 0.000976562 20.8689 0.000976562 21.0135C0.000976562 21.7742 0.394622 22.4402 0.985091 22.8234C0.985091 22.8266 0.988303 22.8266 0.988303 22.8266H0.991519L1.79488 23.1416C1.79488 23.1416 1.79488 23.1448 1.79809 23.1448L3.20477 23.6959C3.66349 23.8766 4.0965 24.0992 4.503 24.3651C5.34893 24.9162 6.07035 25.6376 6.61824 26.4803C6.88415 26.8868 7.1099 27.323 7.29065 27.7826L7.80882 29.1009L8.19524 30.089C8.20006 30.1019 8.20648 30.1131 8.21451 30.1244C8.60575 30.6594 9.2396 31.0064 9.95379 31.0064C10.0783 31.0064 10.2028 30.9968 10.3209 30.9735L11.2552 30.567L12.6001 29.9797C12.9664 29.8207 13.3407 29.6938 13.7223 29.5973C13.8268 29.5708 13.8629 29.4431 13.7826 29.3708C13.552 29.1611 13.3624 28.8735 13.2202 28.508L12.3968 26.4096L11.7019 24.639L11.6754 24.5699L10.8423 22.4579C10.4262 21.3991 9.58665 20.5596 8.53023 20.1426L6.41499 19.3128L6.3459 19.2862L4.5753 18.5913L2.47693 17.7679C2.1114 17.6233 1.82299 17.4353 1.61332 17.2039C1.54102 17.1236 1.41328 17.1597 1.38677 17.2642C1.28956 17.6442 1.16344 18.0177 1.00437 18.3833Z" fill="#FF045F"/>
</svg>
