<svg width="17" height="22" viewBox="0 0 17 22" fill="none" xmlns="http://www.w3.org/2000/svg">
<path d="M6.21399 14.9048C7.74364 14.7772 9.28032 14.7772 10.81 14.9048C11.6429 14.9551 12.472 15.063 13.2918 15.2278C15.0659 15.5996 16.224 16.2064 16.7204 17.1851C17.0932 17.9488 17.0932 18.8581 16.7204 19.6219C16.224 20.6005 15.1118 21.2464 13.2734 21.5792C12.4542 21.7502 11.625 21.8614 10.7916 21.9119C10.0195 22 9.24734 22 8.46602 22H7.05965C6.76551 21.9609 6.48056 21.9413 6.2048 21.9413C5.37134 21.8969 4.54194 21.789 3.72297 21.6183C1.94892 21.266 0.790737 20.6397 0.294371 19.661C0.102756 19.2819 0.00173621 18.8584 0.000110731 18.4279C-0.00376583 17.9948 0.0941986 17.5675 0.285179 17.1851C0.772353 16.2064 1.93054 15.5703 3.72297 15.2278C4.54555 15.0606 5.37778 14.9527 6.21399 14.9048ZM8.50279 0C11.5843 0 14.0823 2.6596 14.0823 5.94039C14.0823 9.22118 11.5843 11.8808 8.50279 11.8808C5.42131 11.8808 2.92327 9.22118 2.92327 5.94039C2.92327 2.6596 5.42131 0 8.50279 0Z" fill="#200E32"/>
</svg>
