<svg width="18" height="20" viewBox="0 0 18 20" fill="none" xmlns="http://www.w3.org/2000/svg">
<path fill-rule="evenodd" clip-rule="evenodd" d="M10.4465 19.2395C9.66582 19.3903 8.48597 19.4074 7.68143 19.2679C7.48328 19.2337 7.27739 19.0495 7.22124 18.8565L6.6994 17.0609C6.64325 16.8679 6.45672 16.6297 6.28277 16.5294L4.39197 15.4379C4.21802 15.3376 3.91919 15.2982 3.72523 15.3501L1.94415 15.8274C1.7502 15.8794 1.48751 15.7968 1.3581 15.6435C0.860464 15.0542 0.295062 14.0725 0.0359197 13.3687C-0.0334647 13.1802 0.0230109 12.9098 0.16178 12.7645L1.50106 11.3681C1.63983 11.2232 1.75278 10.9425 1.75278 10.7414V8.55822C1.75278 8.35749 1.63757 8.07899 1.49557 7.93699L0.160489 6.60223C0.018493 6.46024 -0.0402417 6.19206 0.0291426 6.00359C0.0911045 5.83545 0.324752 5.3346 0.605517 4.84858C0.892413 4.35192 1.21674 3.89011 1.33938 3.74392C1.46814 3.58998 1.73116 3.50382 1.9264 3.5519L3.83173 4.01984C4.02665 4.0676 4.32646 4.02501 4.5004 3.92464L6.39088 2.83289C6.56483 2.73252 6.74845 2.49339 6.80041 2.29943L7.28191 0.502216C7.33386 0.308263 7.53685 0.123668 7.735 0.0901054C8.46273 -0.0325274 9.58353 -0.0315593 10.3306 0.102691C10.5281 0.13819 10.7308 0.324399 10.7828 0.518352L11.2601 2.29943C11.312 2.49339 11.4956 2.73252 11.6693 2.83289L13.5601 3.92464C13.734 4.02501 14.0328 4.06438 14.2268 4.01242L16.0079 3.53512C16.2018 3.48316 16.4645 3.56546 16.5939 3.71875C17.1129 4.3332 17.6899 5.3475 17.9529 6.08395C18.0203 6.27338 17.96 6.54221 17.818 6.6842L16.5649 7.93699C16.4229 8.07899 16.3077 8.35749 16.3077 8.55822V10.7414C16.3077 10.9425 16.4229 11.2206 16.5649 11.3626L17.8367 12.6345C17.9787 12.7765 18.0397 13.0456 17.9729 13.2351C17.899 13.4448 17.6502 13.9876 17.3465 14.514C17.0596 15.0106 16.7353 15.4725 16.6127 15.619C16.4836 15.7726 16.2212 15.8555 16.0272 15.8036L14.3352 15.3501C14.141 15.2982 13.8424 15.3376 13.6685 15.4379L11.7777 16.5294C11.6037 16.6297 11.4204 16.8689 11.3685 17.0628L10.898 18.819C10.846 19.013 10.6437 19.2015 10.4465 19.2395ZM4.63239 9.68128C4.63239 7.27123 6.58871 5.31459 8.99877 5.31459C11.4085 5.31459 13.3651 7.27123 13.3651 9.68128C13.3651 12.091 11.4085 14.0477 8.99877 14.0477C6.58871 14.0477 4.63239 12.091 4.63239 9.68128Z" fill="black"/>
</svg>
