<svg width="20" height="23" viewBox="0 0 20 23" fill="none" xmlns="http://www.w3.org/2000/svg">
<path d="M11.3692 19.5258C11.9544 19.5425 12.5288 19.6811 13.0533 19.9321H13.0848C13.523 20.2794 13.5975 20.8992 13.2532 21.3341C12.6265 22.2054 11.6236 22.7548 10.5272 22.8274C9.40081 22.9579 8.26646 22.655 7.3697 21.9842C6.90851 21.677 6.6088 21.1912 6.54874 20.6534C6.54874 20.0845 7.09605 19.8204 7.60126 19.7086C8.19299 19.5875 8.79617 19.5263 9.40105 19.5258H11.3692ZM10.0431 0C13.6848 0 17.4422 2.56009 17.8317 6.26815C17.8948 7.03008 17.8317 7.82249 17.8948 8.59458C18.1015 9.59026 18.5771 10.5155 19.2736 11.2766C19.7066 11.902 19.9574 12.6284 19.9999 13.3795V13.6132C20.0063 14.6267 19.6324 15.6083 18.9473 16.3764C18.079 17.2784 16.9008 17.8452 15.6319 17.9714C11.883 18.4387 8.08739 18.4387 4.33847 17.9714C3.05465 17.8548 1.85988 17.2872 0.980959 16.3764C0.317326 15.6009 -0.0306743 14.6185 0.00212391 13.6132V13.3795C0.0431976 12.6312 0.2863 11.9062 0.707306 11.2766C1.40688 10.5148 1.88927 9.59058 2.10715 8.59458C2.1703 7.82249 2.10715 7.04024 2.1703 6.26815C2.57025 2.56009 6.25404 0 9.93783 0H10.0431Z" fill="#200E32"/>
</svg>
