<svg width="26" height="25" viewBox="0 0 26 25" fill="none" xmlns="http://www.w3.org/2000/svg">
<path opacity="0.8" fill-rule="evenodd" clip-rule="evenodd" d="M13.6587 0.261446C13.8262 0.0940423 14.0533 0 14.29 0C14.5268 0 14.7539 0.0940423 14.9214 0.261446L20.9078 6.24785H23.217C23.6906 6.24785 24.1449 6.43601 24.4798 6.77093C24.8147 7.10586 25.0029 7.56011 25.0029 8.03377V10.7126C25.0029 11.1863 24.8147 11.6406 24.4798 11.9755C24.1449 12.3104 23.6906 12.4986 23.217 12.4986H22.324L20.7568 23.4668C20.696 23.8924 20.4837 24.2817 20.1589 24.5633C19.8342 24.845 19.4187 25 18.9888 25H6.01408C5.58419 25 5.16871 24.845 4.84393 24.5633C4.51915 24.2817 4.30685 23.8924 4.24602 23.4668L2.67888 12.4986H1.78592C1.31226 12.4986 0.858008 12.3104 0.523084 11.9755C0.188159 11.6406 0 11.1863 0 10.7126V8.03377C0 7.56011 0.188159 7.10586 0.523084 6.77093C0.858008 6.43601 1.31226 6.24785 1.78592 6.24785H4.16119C4.17459 6.23267 4.18798 6.21749 4.20316 6.2032L10.144 0.262339C10.3124 0.0996795 10.538 0.00967422 10.7721 0.0117088C11.0063 0.0137433 11.2302 0.107655 11.3958 0.273217C11.5614 0.438779 11.6553 0.662744 11.6573 0.896876C11.6593 1.13101 11.5693 1.35657 11.4067 1.52498L6.6838 6.24874H18.3816L13.6578 1.52409C13.4904 1.35664 13.3964 1.12955 13.3964 0.892769C13.3964 0.655988 13.4904 0.428901 13.6578 0.261446H13.6587ZM14.2874 15.1774C14.2874 14.9406 14.3814 14.7135 14.5489 14.546C14.7164 14.3786 14.9435 14.2845 15.1803 14.2845C15.4171 14.2845 15.6443 14.3786 15.8117 14.546C15.9792 14.7135 16.0733 14.9406 16.0733 15.1774V20.5352C16.0733 20.772 15.9792 20.9992 15.8117 21.1666C15.6443 21.3341 15.4171 21.4282 15.1803 21.4282C14.9435 21.4282 14.7164 21.3341 14.5489 21.1666C14.3814 20.9992 14.2874 20.772 14.2874 20.5352V15.1774ZM9.82256 14.2845C9.58573 14.2845 9.3586 14.3786 9.19114 14.546C9.02368 14.7135 8.9296 14.9406 8.9296 15.1774V20.5352C8.9296 20.772 9.02368 20.9992 9.19114 21.1666C9.3586 21.3341 9.58573 21.4282 9.82256 21.4282C10.0594 21.4282 10.2865 21.3341 10.454 21.1666C10.6214 20.9992 10.7155 20.772 10.7155 20.5352V15.1774C10.7155 14.9406 10.6214 14.7135 10.454 14.546C10.2865 14.3786 10.0594 14.2845 9.82256 14.2845Z" fill="white"/>
</svg>
