<svg width="21" height="28" viewBox="0 0 21 28" fill="none" xmlns="http://www.w3.org/2000/svg">
<path opacity="0.75" d="M19.5412 10.0015L19.1001 23.6514C19.0626 24.8205 18.5809 25.9285 17.7574 26.7404C16.934 27.5523 15.8335 28.0041 14.6895 28H6.30937C5.16617 28.0042 4.06631 27.553 3.24295 26.742C2.41959 25.9311 1.93746 24.8242 1.89877 23.6559L1.45771 10.0015C1.44805 9.70251 1.55497 9.41182 1.75494 9.19341C1.9549 8.975 2.23153 8.84675 2.52397 8.83688C2.81641 8.82701 3.10071 8.93633 3.31432 9.14079C3.52793 9.34525 3.65336 9.6281 3.66301 9.92712L4.10407 23.5804C4.12603 24.1633 4.36804 24.7147 4.77925 25.119C5.19047 25.5233 5.73891 25.7489 6.30937 25.7485H14.6895C15.2607 25.7489 15.8098 25.5226 16.2211 25.1174C16.6325 24.7122 16.874 24.1596 16.8948 23.5759L17.3359 9.92712C17.3455 9.6281 17.471 9.34525 17.6846 9.14079C17.8982 8.93633 18.1825 8.82701 18.4749 8.83688C18.7674 8.84675 19.044 8.975 19.244 9.19341C19.4439 9.41182 19.5508 9.70251 19.5412 10.0015ZM21 5.45907C21 5.75809 20.8838 6.04486 20.677 6.25629C20.4703 6.46773 20.1898 6.58651 19.8973 6.58651H1.10265C0.81021 6.58651 0.529746 6.46773 0.322959 6.25629C0.116172 6.04486 0 5.75809 0 5.45907C0 5.16006 0.116172 4.87329 0.322959 4.66185C0.529746 4.45042 0.81021 4.33163 1.10265 4.33163H4.52087C4.87024 4.3326 5.20747 4.20062 5.46692 3.96138C5.72638 3.72214 5.8895 3.39276 5.92455 3.03733C6.00592 2.20358 6.38795 1.43065 6.99621 0.869163C7.60447 0.307672 8.39539 -0.00216842 9.21486 1.14242e-05H11.784C12.6035 -0.00216842 13.3944 0.307672 14.0027 0.869163C14.6109 1.43065 14.993 2.20358 15.0743 3.03733C15.1094 3.39276 15.2725 3.72214 15.532 3.96138C15.7914 4.20062 16.1287 4.3326 16.478 4.33163H19.8962C20.1887 4.33163 20.4692 4.45042 20.6759 4.66185C20.8827 4.87329 20.9989 5.16006 20.9989 5.45907H21ZM7.83875 4.33163H13.1624C13.0175 3.99311 12.9227 3.63441 12.8812 3.26733C12.8539 2.98943 12.7266 2.73178 12.5241 2.54432C12.3216 2.35685 12.0583 2.25291 11.7851 2.25264H9.21596C8.9428 2.25291 8.67946 2.35685 8.47697 2.54432C8.27447 2.73178 8.14724 2.98943 8.11993 3.26733C8.07806 3.63447 7.98292 3.99317 7.83765 4.33163H7.83875ZM8.94912 21.4135V11.8133C8.94912 11.5143 8.83295 11.2275 8.62616 11.0161C8.41937 10.8047 8.13891 10.6859 7.84647 10.6859C7.55403 10.6859 7.27356 10.8047 7.06678 11.0161C6.85999 11.2275 6.74382 11.5143 6.74382 11.8133V21.418C6.74382 21.717 6.85999 22.0038 7.06678 22.2152C7.27356 22.4266 7.55403 22.5454 7.84647 22.5454C8.13891 22.5454 8.41937 22.4266 8.62616 22.2152C8.83295 22.0038 8.94912 21.717 8.94912 21.418V21.4135ZM14.2573 21.4135V11.8133C14.2573 11.5143 14.1411 11.2275 13.9343 11.0161C13.7275 10.8047 13.4471 10.6859 13.1546 10.6859C12.8622 10.6859 12.5817 10.8047 12.3749 11.0161C12.1682 11.2275 12.052 11.5143 12.052 11.8133V21.418C12.052 21.717 12.1682 22.0038 12.3749 22.2152C12.5817 22.4266 12.8622 22.5454 13.1546 22.5454C13.4471 22.5454 13.7275 22.4266 13.9343 22.2152C14.1411 22.0038 14.2573 21.717 14.2573 21.418V21.4135Z" fill="white"/>
</svg>
