<svg width="159" height="160" viewBox="0 0 159 160" fill="none" xmlns="http://www.w3.org/2000/svg">
<path d="M121.203 17.0423L118.434 9.97985C118.434 9.97985 117.297 6.67937 116.737 5.66574C116.473 5.18776 115.875 4.49965 115.356 3.98047C112.62 1.24449 108.784 0.0784023 105.376 1.1662C103.263 1.84196 101.256 2.78142 101.256 2.78142C101.256 2.78142 101.244 2.76906 101.231 2.78142L94.1936 5.8594C91.8944 6.86067 89.5375 7.61471 87.1188 8.12153C82.0959 9.1846 76.9083 9.1846 71.9102 8.12153C69.4915 7.61471 67.1098 6.86067 64.8106 5.8594L58.2097 2.98332C58.2097 2.98332 54.493 1.17032 53.1745 0.778878C49.9111 -0.189428 46.2397 1.24861 43.648 3.8445C43.1989 4.29363 42.4901 5.24133 42.2058 5.78111C41.6042 6.92659 40.5453 10.1035 40.5453 10.1035L37.8217 17.0464C36.9028 19.3827 35.7573 21.5872 34.4141 23.6598C36.3589 23.2477 38.5304 23.532 40.8873 24.5663L51.3944 29.1523L60.2617 33.0214L60.6037 33.1739L71.1932 37.7723C76.5004 40.0839 82.5368 40.0839 87.8316 37.7847L98.4212 33.1615L98.7632 33.0091L107.63 29.14L118.138 24.5539C120.507 23.5279 122.678 23.223 124.623 23.6556C123.263 21.5789 122.122 19.3745 121.203 17.0423Z" fill="#1E18CF"/>
<path d="M141.896 121.281L148.958 118.513L153.273 116.815H153.297L153.31 116.803C153.899 116.403 154.443 115.954 154.962 115.435C157.698 112.699 158.674 108.891 157.933 105.389C157.945 105.377 157.933 105.364 157.933 105.364L157.92 105.352L156.165 101.33C156.165 101.33 156.177 101.318 156.165 101.306L153.087 94.2678C152.086 91.9686 151.332 89.6117 150.825 87.193C149.762 82.1702 149.762 76.9825 150.825 71.9844C151.332 69.5657 152.086 67.1841 153.087 64.8849L155.963 58.2839L158.168 53.2487C158.72 49.8864 157.698 46.314 155.102 43.7222C154.653 43.2731 154.171 42.861 153.664 42.5191L148.843 40.6195L141.9 37.8959C139.564 36.977 137.359 35.8315 135.287 34.4883C135.699 36.4331 135.414 38.6046 134.38 40.9615L129.794 51.4687L125.925 60.3359L125.773 60.6779L121.174 71.2674C118.863 76.5746 118.863 82.611 121.162 87.9058L125.785 98.4954L125.937 98.8374L129.807 107.705L134.393 118.212C135.419 120.581 135.724 122.752 135.287 124.697C137.355 123.346 139.56 122.204 141.896 121.281Z" fill="#1E18CF"/>
<path d="M37.6363 141.995L40.4052 149.057C40.4052 149.057 41.5425 152.358 42.1029 153.372C42.3666 153.85 42.9641 154.538 43.4832 155.057C46.2192 157.793 50.0553 158.959 53.463 157.871C55.5767 157.195 57.5834 156.256 57.5834 156.256C57.5834 156.256 57.5958 156.268 57.6081 156.256L64.6459 153.178C66.9451 152.177 69.302 151.423 71.7207 150.916C76.7435 149.853 81.9312 149.853 86.9293 150.916C89.348 151.423 91.7296 152.177 94.0288 153.178L100.63 156.054C100.63 156.054 104.346 157.867 105.665 158.258C108.928 159.227 112.6 157.789 115.191 155.193C115.641 154.744 116.349 153.796 116.634 153.256C117.235 152.111 118.294 148.934 118.294 148.934L121.018 141.991C121.937 139.655 123.082 137.45 124.425 135.378C122.481 135.79 120.309 135.505 117.952 134.471L107.445 129.885L98.5778 126.016L98.2358 125.863L87.6462 121.265C82.3391 118.953 76.3026 118.953 71.0078 121.253L60.4183 125.876L60.0763 126.028L51.2091 129.897L40.7019 134.483C38.3327 135.509 36.1612 135.814 34.2163 135.378C35.5719 137.454 36.7133 139.659 37.6363 141.995Z" fill="#1E18CF"/>
<path d="M16.9433 37.7518L9.88083 40.5207L5.56673 42.2184H5.54201L5.52963 42.2307C4.94041 42.6304 4.39651 43.0795 3.87733 43.5987C1.14135 46.3347 0.164817 50.142 0.906498 53.6444C0.894137 53.6567 0.906498 53.6691 0.906498 53.6691L0.918846 53.6815L2.67416 57.703C2.67416 57.703 2.6618 57.7154 2.67416 57.7277L5.75215 64.7655C6.75342 67.0647 7.50746 69.4216 8.01428 71.8403C9.07736 76.8631 9.07736 82.0508 8.01428 87.0489C7.50746 89.4676 6.75342 91.8492 5.75215 94.1484L2.87606 100.749L0.671629 105.785C0.119489 109.147 1.14136 112.719 3.73725 115.311C4.18638 115.76 4.66847 116.172 5.17528 116.514L9.99621 118.414L16.9392 121.137C19.2755 122.056 21.4799 123.202 23.5525 124.545C23.1404 122.6 23.4248 120.429 24.459 118.072L29.0451 107.565L32.9142 98.6974L33.0666 98.3554L37.665 87.7659C39.9766 82.4587 39.9766 76.4222 37.6774 71.1275L33.0543 60.5379L32.9018 60.1959L29.0327 51.3287L24.4466 40.8215C23.4207 38.4523 23.1157 36.2808 23.5525 34.3359C21.4799 35.6874 19.2755 36.8329 16.9433 37.7518Z" fill="#1E18CF"/>
<path d="M64.7405 5.15475L57.7275 2.09325C57.7275 2.09325 54.563 0.54808 53.4381 0.226684C52.9107 0.0742275 51.9919 0.00830078 51.2502 0.00830078C47.3481 0.00830078 43.7798 1.91195 42.1234 5.11766C41.0974 7.10784 40.3351 9.20515 40.3351 9.20515C40.3351 9.20515 40.3186 9.20515 40.3186 9.22163L37.492 16.4365C36.5649 18.7893 35.4235 21.0102 34.0596 23.0952C31.233 27.434 27.5329 31.1342 23.2105 33.9443C21.1256 35.3082 18.8882 36.4661 16.5313 37.3932L9.7696 40.0509C9.7696 40.0509 5.82632 41.4065 4.60666 42.0699C1.58637 43.7098 0 47.3523 0 51.0525C0 51.6911 0.173053 52.8737 0.354353 53.4629C0.741675 54.7114 2.2539 57.7317 2.2539 57.7317L5.26595 64.6293C6.0818 66.5083 6.73281 68.4284 7.22726 70.3856C7.36324 70.9213 8.01839 71.1067 8.38923 70.6947C9.46467 69.5121 10.9398 68.5397 12.8146 67.8103L23.5772 63.5869L32.6587 60.0227L33.0131 59.8867L43.8457 55.6138C49.2765 53.4794 53.5824 49.1735 55.7209 43.7551L59.9773 32.906L60.1133 32.5516L63.6775 23.4702L67.9009 12.7075C68.6426 10.8327 69.6068 9.35349 70.7935 8.27805C71.2055 7.90721 71.0201 7.25206 70.4845 7.11608C68.5314 6.62163 66.6153 5.9706 64.7405 5.15475Z" fill="#FFC100"/>
<path d="M153.849 64.7447L156.911 57.7317L158.777 53.4423L158.794 53.4258V53.4093C158.93 52.7047 158.996 51.996 158.996 51.2543C158.996 47.3522 156.977 43.9364 153.948 41.9709C153.948 41.9544 153.932 41.9544 153.932 41.9544H153.915L149.795 40.3392C149.795 40.3392 149.795 40.3227 149.778 40.3227L142.564 37.4961C140.211 36.569 137.99 35.4277 135.905 34.0638C131.566 31.2371 127.866 27.537 125.056 23.2146C123.692 21.1297 122.534 18.8923 121.607 16.5354L118.949 9.77371L116.967 4.70556C116.943 4.63963 116.91 4.58195 116.868 4.52426C114.862 1.78004 111.611 0 107.948 0C107.309 0 106.67 0.0494469 106.065 0.16894L101.272 2.25389L94.3748 5.26594C92.4959 6.08179 90.5757 6.73282 88.6185 7.22728C88.0829 7.36325 87.8975 8.0184 88.3095 8.38924C89.4921 9.46468 90.4645 10.9398 91.1938 12.8146L95.4173 23.5772L98.9815 32.6587L99.1174 33.0131L103.39 43.8457C105.525 49.2765 109.831 53.5824 115.249 55.7209L126.098 59.9773L126.453 60.1133L135.534 63.6775L146.297 67.9009C148.171 68.6426 149.651 69.6068 150.726 70.7935C151.097 71.2055 151.752 71.0201 151.888 70.4845C152.383 68.5355 153.034 66.6195 153.849 64.7447Z" fill="#FF045F"/>
<path d="M94.2594 153.878L101.272 156.94C101.272 156.94 104.437 158.485 105.562 158.806C106.089 158.959 107.008 159.025 107.75 159.025C111.652 159.025 115.22 157.121 116.877 153.915C117.903 151.925 118.665 149.828 118.665 149.828C118.665 149.828 118.681 149.828 118.681 149.811L121.508 142.596C122.435 140.244 123.576 138.023 124.94 135.938C127.767 131.599 131.467 127.899 135.789 125.089C137.874 123.725 140.112 122.567 142.469 121.64L149.23 118.982C149.23 118.982 153.178 117.626 154.393 116.963C157.414 115.323 159 111.681 159 107.981C159 107.342 158.827 106.159 158.646 105.57C158.258 104.322 156.746 101.301 156.746 101.301L153.734 94.4036C152.918 92.5247 152.267 90.6046 151.773 88.6473C151.637 88.1117 150.982 87.9263 150.611 88.3383C149.535 89.5209 148.06 90.4933 146.185 91.2226L135.423 95.4461L126.341 99.0103L125.987 99.1463L115.154 103.419C109.723 105.554 105.418 109.859 103.279 115.278L99.0227 126.127L98.8867 126.481L95.3225 135.563L91.099 146.325C90.3574 148.2 89.3932 149.679 88.2065 150.755C87.7944 151.126 87.9798 151.781 88.5155 151.917C90.4686 152.415 92.3846 153.066 94.2594 153.878Z" fill="#FFC100"/>
<path d="M5.15035 94.2885L2.08885 101.301L0.222277 105.591L0.205804 105.607V105.624C0.0698295 106.328 0.00390625 107.037 0.00390625 107.779C0.00390625 111.681 2.02293 115.097 5.05146 117.062C5.05146 117.079 5.06793 117.079 5.06793 117.079H5.08443L9.20488 118.694C9.20488 118.694 9.20487 118.71 9.22136 118.71L16.4363 121.537C18.7891 122.464 21.01 123.606 23.0949 124.969C27.4337 127.796 31.1339 131.496 33.9441 135.819C35.3079 137.903 36.4658 140.141 37.3929 142.498L40.0506 149.259L42.0325 154.328C42.0572 154.394 42.0902 154.451 42.1314 154.509C44.1381 157.253 47.3891 159.033 51.0522 159.033C51.6909 159.033 52.3295 158.984 52.9352 158.864L57.7273 156.779L64.625 153.767C66.5039 152.951 68.424 152.3 70.3812 151.806C70.9169 151.67 71.1023 151.015 70.6903 150.644C69.5077 149.568 68.5353 148.093 67.8059 146.219L63.5825 135.456L60.0183 126.374L59.8823 126.02L55.6094 115.187C53.475 109.757 49.1691 105.451 43.7507 103.312L32.9016 99.0559L32.5472 98.9199L23.4658 95.3557L12.7031 91.1322C10.8283 90.3905 9.3491 89.4264 8.27366 88.2397C7.90282 87.8276 7.24766 88.013 7.11169 88.5487C6.61311 90.4977 5.9662 92.4137 5.15035 94.2885Z" fill="#FF045F"/>
</svg>
