<svg width="21" height="18" viewBox="0 0 21 18" fill="none" xmlns="http://www.w3.org/2000/svg">
<path d="M11.3693 0.483698L13.8645 5.01904C13.9339 5.14524 14.0365 5.2544 14.1634 5.33711C14.2903 5.41983 14.4377 5.47362 14.593 5.49384L20.1715 6.22123C20.3502 6.24451 20.5181 6.3122 20.6562 6.41662C20.7942 6.52105 20.8969 6.65806 20.9527 6.81214C21.0085 6.96622 21.0151 7.13123 20.9717 7.2885C20.9284 7.44577 20.8369 7.58902 20.7075 7.70205L16.6702 11.2322C16.4419 11.4319 16.3383 11.7192 16.3916 12.0004L17.3445 16.9854C17.375 17.145 17.3551 17.3091 17.2871 17.4591C17.219 17.6091 17.1056 17.7391 16.9595 17.8343C16.8135 17.9295 16.6407 17.9861 16.4606 17.9977C16.2806 18.0094 16.1005 17.9757 15.9407 17.9003L10.9504 15.5462C10.8114 15.4809 10.6569 15.4467 10.5 15.4467C10.3431 15.4467 10.1886 15.4809 10.0496 15.5462L5.0593 17.9003C4.89952 17.9757 4.71943 18.0094 4.53938 17.9977C4.35933 17.9861 4.18651 17.9295 4.04046 17.8343C3.89441 17.7391 3.78095 17.6091 3.71292 17.4591C3.64488 17.3091 3.62498 17.145 3.65547 16.9854L4.60845 12.0004C4.63498 11.8617 4.62348 11.7193 4.57493 11.5854C4.52638 11.4516 4.44226 11.3304 4.32981 11.2322L0.292463 7.70205C0.163107 7.58902 0.0715885 7.44577 0.0282626 7.2885C-0.0150633 7.13123 -0.00846782 6.96622 0.0473029 6.81214C0.103074 6.65806 0.205794 6.52105 0.343843 6.41662C0.481891 6.3122 0.649759 6.24451 0.828455 6.22123L6.40702 5.49384C6.56226 5.47362 6.70969 5.41983 6.8366 5.33711C6.96352 5.2544 7.06611 5.14524 7.13554 5.01904L9.63071 0.483698C9.98868 -0.161233 11.0142 -0.161233 11.3693 0.483698Z" fill="black" fill-opacity="0.1"/>
</svg>
