<svg width="20" height="19" viewBox="0 0 20 19" fill="none" xmlns="http://www.w3.org/2000/svg">
<path d="M1.53222 9.61772C0.549895 8.56629 -6.94394e-05 7.1544 6.57609e-09 5.68416C6.57609e-09 2.54451 2.46222 1.94434e-05 5.5 1.94434e-05C7.36 1.94434e-05 9.00445 0.953188 10 2.41433C10.5115 1.66547 11.1869 1.05556 11.9698 0.635554C12.7526 0.215543 13.6202 -0.0023702 14.5 1.94434e-05C17.5378 1.94434e-05 20 2.54451 20 5.68299C20.0001 6.44667 19.8516 7.20239 19.5638 7.90418C19.2759 8.60598 18.8546 9.2392 18.3256 9.76535L10 18.5984L1.53222 9.61772Z" fill="black"/>
</svg>
