<svg width="24" height="24" viewBox="0 0 24 24" fill="none" xmlns="http://www.w3.org/2000/svg">
<path d="M12 23C18.0751 23 23 18.0751 23 12C23 5.92487 18.0751 1 12 1C5.92487 1 1 5.92487 1 12C1 18.0751 5.92487 23 12 23Z" stroke="black" stroke-width="2" stroke-linecap="round" stroke-linejoin="round"/>
<path d="M8.79907 8.69998C9.05769 7.96482 9.56814 7.3449 10.24 6.95003C10.9119 6.55516 11.7019 6.41081 12.47 6.54256C13.2381 6.67432 13.9348 7.07366 14.4367 7.66986C14.9385 8.26607 15.2132 9.02066 15.2121 9.79998C15.2121 12 11.9121 13.1 11.9121 13.1" stroke="black" stroke-width="2" stroke-linecap="round" stroke-linejoin="round"/>
<path d="M12 17.5H12.012" stroke="black" stroke-width="2" stroke-linecap="round" stroke-linejoin="round"/>
</svg>
