<svg width="23" height="25" viewBox="0 0 23 25" fill="none" xmlns="http://www.w3.org/2000/svg">
<path fill-rule="evenodd" clip-rule="evenodd" d="M21.7222 2.74338H20.2272C19.9632 1.94119 19.4737 1.24655 18.826 0.755204C18.1784 0.263858 17.4045 0 16.6111 0C15.8177 0 15.0439 0.263858 14.3962 0.755204C13.7486 1.24655 13.259 1.94119 12.995 2.74338H1.27778C0.93889 2.74338 0.613882 2.88772 0.374252 3.14464C0.134623 3.40157 0 3.75004 0 4.11338C0 4.47673 0.134623 4.8252 0.374252 5.08213C0.613882 5.33905 0.93889 5.48339 1.27778 5.48339H12.995C13.259 6.28558 13.7486 6.98022 14.3962 7.47157C15.0439 7.96291 15.8177 8.22677 16.6111 8.22677C17.4045 8.22677 18.1784 7.96291 18.826 7.47157C19.4737 6.98022 19.9632 6.28558 20.2272 5.48339H21.7222C22.0611 5.48339 22.3861 5.33905 22.6257 5.08213C22.8654 4.8252 23 4.47673 23 4.11338C23 3.75004 22.8654 3.40157 22.6257 3.14464C22.3861 2.88772 22.0611 2.74338 21.7222 2.74338ZM16.6111 5.48339C16.95 5.48339 17.275 5.33905 17.5146 5.08213C17.7543 4.8252 17.8889 4.47673 17.8889 4.11338C17.8889 3.75004 17.7543 3.40157 17.5146 3.14464C17.275 2.88772 16.95 2.74338 16.6111 2.74338C16.2722 2.74338 15.9472 2.88772 15.7076 3.14464C15.468 3.40157 15.3333 3.75004 15.3333 4.11338C15.3333 4.47673 15.468 4.8252 15.7076 5.08213C15.9472 5.33905 16.2722 5.48339 16.6111 5.48339ZM0 12.3334C0 11.9701 0.134623 11.6216 0.374252 11.3647C0.613882 11.1078 0.93889 10.9634 1.27778 10.9634H2.77278C3.03677 10.1612 3.52633 9.4666 4.17399 8.97526C4.82164 8.48391 5.5955 8.22005 6.38889 8.22005C7.18228 8.22005 7.95613 8.48391 8.60379 8.97526C9.25144 9.4666 9.74101 10.1612 10.005 10.9634H21.7222C22.0611 10.9634 22.3861 11.1078 22.6257 11.3647C22.8654 11.6216 23 11.9701 23 12.3334C23 12.6968 22.8654 13.0453 22.6257 13.3022C22.3861 13.5591 22.0611 13.7034 21.7222 13.7034H10.005C9.74101 14.5056 9.25144 15.2003 8.60379 15.6916C7.95613 16.183 7.18228 16.4468 6.38889 16.4468C5.5955 16.4468 4.82164 16.183 4.17399 15.6916C3.52633 15.2003 3.03677 14.5056 2.77278 13.7034H1.27778C0.93889 13.7034 0.613882 13.5591 0.374252 13.3022C0.134623 13.0453 0 12.6968 0 12.3334ZM6.38889 13.7034C6.72778 13.7034 7.05278 13.5591 7.29241 13.3022C7.53204 13.0453 7.66667 12.6968 7.66667 12.3334C7.66667 11.9701 7.53204 11.6216 7.29241 11.3647C7.05278 11.1078 6.72778 10.9634 6.38889 10.9634C6.05 10.9634 5.72499 11.1078 5.48536 11.3647C5.24573 11.6216 5.11111 11.9701 5.11111 12.3334C5.11111 12.6968 5.24573 13.0453 5.48536 13.3022C5.72499 13.5591 6.05 13.7034 6.38889 13.7034ZM1.27778 19.1835C0.93889 19.1835 0.613882 19.3278 0.374252 19.5847C0.134623 19.8417 0 20.1901 0 20.5535C0 20.9168 0.134623 21.2653 0.374252 21.5222C0.613882 21.7792 0.93889 21.9235 1.27778 21.9235H12.995C13.259 22.7257 13.7486 23.4203 14.3962 23.9117C15.0439 24.403 15.8177 24.6669 16.6111 24.6669C17.4045 24.6669 18.1784 24.403 18.826 23.9117C19.4737 23.4203 19.9632 22.7257 20.2272 21.9235H21.7222C22.0611 21.9235 22.3861 21.7792 22.6257 21.5222C22.8654 21.2653 23 20.9168 23 20.5535C23 20.1901 22.8654 19.8417 22.6257 19.5847C22.3861 19.3278 22.0611 19.1835 21.7222 19.1835H20.2272C19.9632 18.3813 19.4737 17.6867 18.826 17.1953C18.1784 16.704 17.4045 16.4401 16.6111 16.4401C15.8177 16.4401 15.0439 16.704 14.3962 17.1953C13.7486 17.6867 13.259 18.3813 12.995 19.1835H1.27778ZM17.8889 20.5535C17.8889 20.9168 17.7543 21.2653 17.5146 21.5222C17.275 21.7792 16.95 21.9235 16.6111 21.9235C16.2722 21.9235 15.9472 21.7792 15.7076 21.5222C15.468 21.2653 15.3333 20.9168 15.3333 20.5535C15.3333 20.1901 15.468 19.8417 15.7076 19.5847C15.9472 19.3278 16.2722 19.1835 16.6111 19.1835C16.95 19.1835 17.275 19.3278 17.5146 19.5847C17.7543 19.8417 17.8889 20.1901 17.8889 20.5535Z" fill="white"/>
</svg>
