<svg width="32" height="32" viewBox="0 0 32 32" fill="none" xmlns="http://www.w3.org/2000/svg">
<path d="M31.1532 26.8984L24.1034 19.8489C25.3309 17.8614 26.0729 15.543 26.0729 13.0361C26.0729 5.83614 20.2366 0 13.0365 0C5.83633 0 0 5.83614 0 13.0361C0 20.236 5.83633 26.0721 13.0365 26.0721C15.5435 26.0721 17.862 25.3301 19.8475 24.1047L26.8993 31.1542C27.4668 31.7029 28.2272 32.0066 29.0166 31.9999C29.806 31.9932 30.5611 31.6765 31.1192 31.1182C31.6772 30.5599 31.9935 29.8046 31.9999 29.0152C32.0063 28.2259 31.7022 27.4656 31.1532 26.8984ZM13.0365 22.061C8.05253 22.061 4.01122 18.0198 4.01122 13.0361C4.01122 8.05227 8.05253 4.01109 13.0365 4.01109C18.0204 4.01109 22.0617 8.05227 22.0617 13.0361C22.0617 18.0198 18.0204 22.061 13.0365 22.061Z" fill="white"/>
</svg>
