<svg width="428" height="47" viewBox="0 0 428 47" fill="none" xmlns="http://www.w3.org/2000/svg">
<g clip-path="url(#clip0_425_10828)">
<path fill-rule="evenodd" clip-rule="evenodd" d="M328.797 18.5771H327.451C326.707 18.5771 326.104 19.1583 326.104 19.8752V31.1252C326.104 31.8421 326.707 32.4233 327.451 32.4233H328.797C329.54 32.4233 330.143 31.8421 330.143 31.1252V19.8752C330.143 19.1583 329.54 18.5771 328.797 18.5771ZM321.116 21.6061H322.462C323.205 21.6061 323.808 22.1873 323.808 22.9042V31.1254C323.808 31.8423 323.205 32.4234 322.462 32.4234H321.116C320.372 32.4234 319.77 31.8423 319.77 31.1254V22.9042C319.77 22.1873 320.372 21.6061 321.116 21.6061ZM316.127 24.6347H314.781C314.037 24.6347 313.435 25.216 313.435 25.9328V31.1251C313.435 31.842 314.037 32.4233 314.781 32.4233H316.127C316.871 32.4233 317.473 31.842 317.473 31.1251V25.9328C317.473 25.216 316.871 24.6347 316.127 24.6347ZM309.792 27.2308H308.446C307.703 27.2308 307.1 27.812 307.1 28.5289V31.1251C307.1 31.842 307.703 32.4233 308.446 32.4233H309.792C310.536 32.4233 311.138 31.842 311.138 31.1251V28.5289C311.138 27.812 310.536 27.2308 309.792 27.2308Z" fill="white"/>
<path fill-rule="evenodd" clip-rule="evenodd" d="M346.951 21.2835C349.797 21.2837 352.534 22.4036 354.597 24.4118C354.752 24.5668 355.001 24.5648 355.154 24.4074L356.638 22.8728C356.716 22.793 356.759 22.6848 356.758 22.5722C356.758 22.4597 356.713 22.352 356.635 22.2731C351.221 16.9598 342.68 16.9598 337.267 22.2731C337.188 22.3519 337.144 22.4596 337.143 22.5721C337.142 22.6847 337.185 22.7929 337.263 22.8728L338.748 24.4074C338.901 24.5651 339.149 24.567 339.304 24.4118C341.367 22.4034 344.105 21.2835 346.951 21.2835ZM346.951 26.2759C348.515 26.2758 350.023 26.871 351.182 27.9458C351.339 28.0984 351.586 28.0951 351.738 27.9384L353.221 26.4039C353.3 26.3234 353.343 26.2142 353.342 26.1007C353.341 25.9873 353.295 25.879 353.215 25.8002C349.686 22.4377 344.22 22.4377 340.69 25.8002C340.61 25.879 340.565 25.9873 340.564 26.1008C340.563 26.2143 340.606 26.3235 340.684 26.4039L342.167 27.9384C342.32 28.0951 342.567 28.0984 342.723 27.9458C343.882 26.8717 345.388 26.2765 346.951 26.2759ZM349.922 29.635C349.924 29.7488 349.88 29.8585 349.801 29.9382L347.236 32.5895C347.161 32.6674 347.058 32.7112 346.951 32.7112C346.844 32.7112 346.742 32.6674 346.666 32.5895L344.101 29.9382C344.021 29.8585 343.978 29.7487 343.98 29.635C343.983 29.5212 344.031 29.4134 344.113 29.3372C345.751 27.9181 348.151 27.9181 349.789 29.3372C349.872 29.4135 349.92 29.5213 349.922 29.635Z" fill="white"/>
<path opacity="0.4" d="M387.989 18.5771H368.373C366.143 18.5771 364.335 20.3852 364.335 22.6156V28.3849C364.335 30.6153 366.143 32.4233 368.373 32.4233H387.989C390.219 32.4233 392.027 30.6153 392.027 28.3849V22.6156C392.027 20.3852 390.219 18.5771 387.989 18.5771Z" stroke="white" stroke-width="1.15385"/>
<path opacity="0.5" d="M393.758 23.1924V27.8078C394.688 27.4169 395.293 26.5076 395.293 25.5001C395.293 24.4927 394.688 23.5833 393.758 23.1924Z" fill="white"/>
<path d="M383.374 20.3076H368.374C367.099 20.3076 366.066 21.3408 366.066 22.6153V28.3845C366.066 29.659 367.099 30.6922 368.374 30.6922H383.374C384.648 30.6922 385.681 29.659 385.681 28.3845V22.6153C385.681 21.3408 384.648 20.3076 383.374 20.3076Z" fill="white"/>
<path d="M61.2676 19.001C58.5166 19.001 56.5566 20.8818 56.5566 23.457V23.4746C56.5566 25.8828 58.2617 27.6582 60.6963 27.6582C62.4365 27.6582 63.5439 26.7705 64.0098 25.7686H64.1855C64.1855 25.8652 64.1768 25.9619 64.1768 26.0586C64.0801 28.4844 63.2275 30.4531 61.2148 30.4531C60.0986 30.4531 59.3164 29.873 58.9824 28.9854L58.9561 28.8975H56.7236L56.7412 28.9941C57.1455 30.9365 58.8857 32.3164 61.2148 32.3164C64.4053 32.3164 66.3301 29.7852 66.3301 25.5137V25.4961C66.3301 20.9258 63.9746 19.001 61.2676 19.001ZM61.2588 25.918C59.8174 25.918 58.7715 24.8633 58.7715 23.3955V23.3779C58.7715 21.9629 59.8877 20.8467 61.2852 20.8467C62.6914 20.8467 63.79 21.9805 63.79 23.4307V23.4482C63.79 24.8809 62.6914 25.918 61.2588 25.918ZM69.8203 23.7822C70.6289 23.7822 71.2178 23.167 71.2178 22.3936C71.2178 21.6113 70.6289 21.0049 69.8203 21.0049C69.0205 21.0049 68.4229 21.6113 68.4229 22.3936C68.4229 23.167 69.0205 23.7822 69.8203 23.7822ZM69.8203 30.3037C70.6289 30.3037 71.2178 29.6973 71.2178 28.915C71.2178 28.1328 70.6289 27.5264 69.8203 27.5264C69.0205 27.5264 68.4229 28.1328 68.4229 28.915C68.4229 29.6973 69.0205 30.3037 69.8203 30.3037ZM79.4629 32H81.6338V29.5654H83.3389V27.6934H81.6338V19.3174H78.4258C76.7031 21.9365 74.9014 24.8545 73.2578 27.7109V29.5654H79.4629V32ZM75.3672 27.7461V27.6143C76.5977 25.4609 78.0654 23.1143 79.3662 21.1279H79.498V27.7461H75.3672ZM88.0947 32H90.3623V19.3174H88.1035L84.79 21.6465V23.7822L87.9453 21.5498H88.0947V32Z" fill="white"/>
<rect width="428" height="47" fill="#FF045F"/>
<path fill-rule="evenodd" clip-rule="evenodd" d="M328.797 18.5771H327.451C326.707 18.5771 326.104 19.1583 326.104 19.8752V31.1252C326.104 31.8421 326.707 32.4233 327.451 32.4233H328.797C329.54 32.4233 330.143 31.8421 330.143 31.1252V19.8752C330.143 19.1583 329.54 18.5771 328.797 18.5771ZM321.116 21.6061H322.462C323.205 21.6061 323.808 22.1873 323.808 22.9042V31.1254C323.808 31.8423 323.205 32.4234 322.462 32.4234H321.116C320.372 32.4234 319.77 31.8423 319.77 31.1254V22.9042C319.77 22.1873 320.372 21.6061 321.116 21.6061ZM316.127 24.6347H314.781C314.037 24.6347 313.435 25.216 313.435 25.9328V31.1251C313.435 31.842 314.037 32.4233 314.781 32.4233H316.127C316.871 32.4233 317.473 31.842 317.473 31.1251V25.9328C317.473 25.216 316.871 24.6347 316.127 24.6347ZM309.792 27.2308H308.446C307.703 27.2308 307.1 27.812 307.1 28.5289V31.1251C307.1 31.842 307.703 32.4233 308.446 32.4233H309.792C310.536 32.4233 311.138 31.842 311.138 31.1251V28.5289C311.138 27.812 310.536 27.2308 309.792 27.2308Z" fill="white"/>
<path fill-rule="evenodd" clip-rule="evenodd" d="M346.951 21.2835C349.797 21.2837 352.534 22.4036 354.597 24.4118C354.752 24.5668 355.001 24.5648 355.154 24.4074L356.638 22.8728C356.716 22.793 356.759 22.6848 356.758 22.5722C356.758 22.4597 356.713 22.352 356.635 22.2731C351.221 16.9598 342.68 16.9598 337.267 22.2731C337.188 22.3519 337.144 22.4596 337.143 22.5721C337.142 22.6847 337.185 22.7929 337.263 22.8728L338.748 24.4074C338.901 24.5651 339.149 24.567 339.304 24.4118C341.367 22.4034 344.105 21.2835 346.951 21.2835ZM346.951 26.2759C348.515 26.2758 350.023 26.871 351.182 27.9458C351.339 28.0984 351.586 28.0951 351.738 27.9384L353.221 26.4039C353.3 26.3234 353.343 26.2142 353.342 26.1007C353.341 25.9873 353.295 25.879 353.215 25.8002C349.686 22.4377 344.22 22.4377 340.69 25.8002C340.61 25.879 340.565 25.9873 340.564 26.1008C340.563 26.2143 340.606 26.3235 340.684 26.4039L342.167 27.9384C342.32 28.0951 342.567 28.0984 342.723 27.9458C343.882 26.8717 345.388 26.2765 346.951 26.2759ZM349.922 29.635C349.924 29.7488 349.88 29.8585 349.801 29.9382L347.236 32.5895C347.161 32.6674 347.058 32.7112 346.951 32.7112C346.844 32.7112 346.742 32.6674 346.666 32.5895L344.101 29.9382C344.021 29.8585 343.978 29.7487 343.98 29.635C343.983 29.5212 344.031 29.4134 344.113 29.3372C345.751 27.9181 348.151 27.9181 349.789 29.3372C349.872 29.4135 349.92 29.5213 349.922 29.635Z" fill="white"/>
<path opacity="0.4" d="M387.989 18.5771H368.373C366.143 18.5771 364.335 20.3852 364.335 22.6156V28.3849C364.335 30.6153 366.143 32.4233 368.373 32.4233H387.989C390.219 32.4233 392.027 30.6153 392.027 28.3849V22.6156C392.027 20.3852 390.219 18.5771 387.989 18.5771Z" stroke="white" stroke-width="1.15385"/>
<path opacity="0.5" d="M393.758 23.1924V27.8078C394.688 27.4169 395.293 26.5076 395.293 25.5001C395.293 24.4927 394.688 23.5833 393.758 23.1924Z" fill="white"/>
<path d="M383.374 20.3076H368.374C367.099 20.3076 366.066 21.3408 366.066 22.6153V28.3845C366.066 29.659 367.099 30.6922 368.374 30.6922H383.374C384.648 30.6922 385.681 29.659 385.681 28.3845V22.6153C385.681 21.3408 384.648 20.3076 383.374 20.3076Z" fill="white"/>
<path d="M61.2676 19.001C58.5166 19.001 56.5566 20.8818 56.5566 23.457V23.4746C56.5566 25.8828 58.2617 27.6582 60.6963 27.6582C62.4365 27.6582 63.5439 26.7705 64.0098 25.7686H64.1855C64.1855 25.8652 64.1768 25.9619 64.1768 26.0586C64.0801 28.4844 63.2275 30.4531 61.2148 30.4531C60.0986 30.4531 59.3164 29.873 58.9824 28.9854L58.9561 28.8975H56.7236L56.7412 28.9941C57.1455 30.9365 58.8857 32.3164 61.2148 32.3164C64.4053 32.3164 66.3301 29.7852 66.3301 25.5137V25.4961C66.3301 20.9258 63.9746 19.001 61.2676 19.001ZM61.2588 25.918C59.8174 25.918 58.7715 24.8633 58.7715 23.3955V23.3779C58.7715 21.9629 59.8877 20.8467 61.2852 20.8467C62.6914 20.8467 63.79 21.9805 63.79 23.4307V23.4482C63.79 24.8809 62.6914 25.918 61.2588 25.918ZM69.8203 23.7822C70.6289 23.7822 71.2178 23.167 71.2178 22.3936C71.2178 21.6113 70.6289 21.0049 69.8203 21.0049C69.0205 21.0049 68.4229 21.6113 68.4229 22.3936C68.4229 23.167 69.0205 23.7822 69.8203 23.7822ZM69.8203 30.3037C70.6289 30.3037 71.2178 29.6973 71.2178 28.915C71.2178 28.1328 70.6289 27.5264 69.8203 27.5264C69.0205 27.5264 68.4229 28.1328 68.4229 28.915C68.4229 29.6973 69.0205 30.3037 69.8203 30.3037ZM79.4629 32H81.6338V29.5654H83.3389V27.6934H81.6338V19.3174H78.4258C76.7031 21.9365 74.9014 24.8545 73.2578 27.7109V29.5654H79.4629V32ZM75.3672 27.7461V27.6143C76.5977 25.4609 78.0654 23.1143 79.3662 21.1279H79.498V27.7461H75.3672ZM88.0947 32H90.3623V19.3174H88.1035L84.79 21.6465V23.7822L87.9453 21.5498H88.0947V32Z" fill="white"/>
</g>
<defs>
<clipPath id="clip0_425_10828">
<rect width="428" height="47" fill="white"/>
</clipPath>
</defs>
</svg>
