<svg width="25" height="25" viewBox="0 0 25 25" fill="none" xmlns="http://www.w3.org/2000/svg">
<path opacity="0.8" d="M18.2585 2.92354e-05C18.2548 8.74172e-06 18.2512 8.74172e-06 18.2476 2.92354e-05C18.2024 0.00172943 18.1575 0.00658687 18.1131 0.014566H0.966736C0.839341 0.0140834 0.713117 0.0387855 0.595372 0.0872415C0.477628 0.135697 0.370703 0.206945 0.280792 0.296856C0.19088 0.386768 0.119768 0.493557 0.0715737 0.61104C0.0233796 0.728522 -0.000938345 0.854363 2.76922e-05 0.981274V21.1549C2.76922e-05 23.2664 1.72993 25 3.84505 25H21.1513C21.2161 24.9992 21.2806 24.9919 21.3439 24.9782C21.3463 24.9782 21.3488 24.9782 21.3512 24.9782C22.3328 24.9263 23.2575 24.501 23.9358 23.7896C24.6141 23.0781 24.9949 22.1343 25 21.1513V13.4685C25.0009 13.3419 24.9767 13.2164 24.9288 13.0991C24.8808 12.9819 24.81 12.8753 24.7205 12.7854C24.631 12.6955 24.5245 12.6242 24.4071 12.5755C24.2898 12.5269 24.164 12.5018 24.0369 12.5018H19.2324V0.981274C19.2354 0.852844 19.2124 0.725135 19.1648 0.60572C19.1173 0.486306 19.0462 0.377619 18.9557 0.286105C18.8652 0.194591 18.7572 0.122114 18.638 0.0729724C18.5189 0.0238311 18.391 -0.000973571 18.2621 2.92354e-05H18.2585ZM4.81176 5.77847H14.4171C14.6735 5.77847 14.9193 5.87994 15.1006 6.06055C15.2819 6.24116 15.3838 6.48612 15.3838 6.74155C15.3838 6.99697 15.2819 7.24193 15.1006 7.42254C14.9193 7.60315 14.6735 7.70462 14.4171 7.70462H4.81176C4.55537 7.70462 4.30948 7.60315 4.12819 7.42254C3.94689 7.24193 3.84504 6.99697 3.84504 6.74155C3.84504 6.48612 3.94689 6.24116 4.12819 6.06055C4.30948 5.87994 4.55537 5.77847 4.81176 5.77847ZM4.81176 9.6235H14.4171C14.6735 9.6235 14.9193 9.72497 15.1006 9.90558C15.2819 10.0862 15.3838 10.3312 15.3838 10.5866C15.3838 10.842 15.2819 11.087 15.1006 11.2676C14.9193 11.4482 14.6735 11.5496 14.4171 11.5496H4.81176C4.55537 11.5496 4.30948 11.4482 4.12819 11.2676C3.94689 11.087 3.84504 10.842 3.84504 10.5866C3.84504 10.3312 3.94689 10.0862 4.12819 9.90558C4.30948 9.72497 4.55537 9.6235 4.81176 9.6235ZM4.80813 13.4685C4.80934 13.4685 4.81055 13.4685 4.81176 13.4685H14.4171C14.6725 13.4685 14.9174 13.57 15.0981 13.7506C15.2787 13.9312 15.3801 14.1762 15.3801 14.4316C15.3801 14.687 15.2787 14.932 15.0981 15.1126C14.9174 15.2932 14.6725 15.3947 14.4171 15.3947H4.81176C4.55634 15.4077 4.30621 15.3187 4.1164 15.1473C3.92658 14.9759 3.81264 14.7361 3.79963 14.4807C3.78661 14.2252 3.8756 13.9751 4.04701 13.7853C4.21842 13.5955 4.45822 13.4815 4.71364 13.4685C4.74512 13.467 4.77665 13.467 4.80813 13.4685ZM19.2324 14.428H23.0775V21.1586C23.0775 22.2416 22.2343 23.0847 21.1513 23.0847C20.8979 23.0877 20.6464 23.0398 20.4118 22.944C20.1772 22.8481 19.9642 22.7062 19.7853 22.5267C19.6064 22.3471 19.4654 22.1336 19.3704 21.8986C19.2754 21.6636 19.2285 21.412 19.2324 21.1586V14.428ZM4.80813 17.3136C4.80934 17.3136 4.81055 17.3136 4.81176 17.3136H14.4171C14.6735 17.3136 14.9193 17.415 15.1006 17.5956C15.2819 17.7762 15.3838 18.0212 15.3838 18.2766C15.3838 18.5321 15.2819 18.777 15.1006 18.9576C14.9193 19.1382 14.6735 19.2397 14.4171 19.2397H4.81176C4.55634 19.2527 4.30621 19.1637 4.1164 18.9923C3.92658 18.8209 3.81264 18.5811 3.79963 18.3257C3.78661 18.0703 3.8756 17.8201 4.04701 17.6303C4.21842 17.4405 4.45822 17.3266 4.71364 17.3136C4.74512 17.312 4.77665 17.312 4.80813 17.3136Z" fill="white"/>
</svg>
