<svg width="47" height="47" viewBox="0 0 47 47" fill="none" xmlns="http://www.w3.org/2000/svg">
<path d="M19.1722 1.74304L17.1235 0.848338C17.1235 0.848338 16.1987 0.397553 15.8707 0.303103C15.7162 0.258454 15.4483 0.239562 15.2319 0.239561C14.0916 0.239562 13.0492 0.795961 12.5658 1.73273C12.2661 2.31403 12.0438 2.92796 12.0438 2.92796C12.0438 2.92796 12.0386 2.92796 12.0386 2.93311L11.2135 5.04106C10.943 5.72883 10.609 6.3771 10.2106 6.98673C9.38542 8.25494 8.3044 9.33596 7.04135 10.156C6.43171 10.5544 5.77829 10.8935 5.09052 11.164L3.11566 11.9402C3.11566 11.9402 1.96336 12.3369 1.60703 12.5301C0.725209 13.0084 0.259829 14.0731 0.260687 15.1541C0.260687 15.3413 0.310488 15.6864 0.363724 15.8582C0.477064 16.2222 0.918406 17.1049 0.918406 17.1049L1.79765 19.1193C2.09302 19.7976 2.31369 20.4957 2.46567 21.2075C2.78508 20.7163 3.29683 20.3231 4.00349 20.0475L7.14867 18.8136L9.80272 17.7721L9.90576 17.7326L13.0707 16.4841C14.6583 15.8599 15.9162 14.602 16.5404 13.0195L17.7837 9.84943L17.8232 9.74639L18.8648 7.09235L20.0986 3.94716C20.3786 3.23964 20.7675 2.7236 21.263 2.40848C20.5468 2.25908 19.8496 2.03755 19.1722 1.74304Z" fill="#1E18CF"/>
<path d="M45.2058 19.1529L46.1005 17.1042L46.6458 15.8514L46.6509 15.8463L46.6509 15.8411C46.6904 15.6351 46.7102 15.4281 46.7102 15.2117C46.7102 14.0715 46.1203 13.0746 45.2359 12.4993C45.2359 12.4942 45.2307 12.4942 45.2307 12.4942L45.2256 12.4942L44.0218 12.0219C44.0218 12.0219 44.0218 12.0168 44.0166 12.0168L41.9087 11.1916C41.2209 10.9211 40.5726 10.5871 39.963 10.1887C38.6948 9.36357 37.6138 8.28255 36.7938 7.01949C36.3954 6.40986 36.0562 5.75644 35.7857 5.06867L35.0095 3.09381L34.4196 1.58517C33.8341 0.769468 32.8767 0.237977 31.7956 0.238836C31.6085 0.238836 31.4221 0.253434 31.2453 0.287779L29.8448 0.896547L27.8305 1.7758C27.1521 2.07117 26.4541 2.29183 25.7423 2.44381C26.2334 2.76323 26.6267 3.27498 26.9023 3.98164L28.1361 7.12682L29.1777 9.78086L29.2172 9.8839L30.4656 13.0488C31.0899 14.6365 32.3478 15.8944 33.9302 16.5186L37.1003 17.7619L37.2033 17.8014L39.8574 18.8429L43.0026 20.0768C43.7101 20.3567 44.2261 20.7457 44.5404 21.242C44.6898 20.5293 44.9113 19.8321 45.2058 19.1529Z" fill="#1E18CF"/>
<path d="M27.7961 45.1951L29.8448 46.0898C29.8448 46.0898 30.7696 46.5406 31.0976 46.6351C31.2521 46.6797 31.52 46.6986 31.7364 46.6986C32.8767 46.6986 33.919 46.1422 34.4025 45.2054C34.7021 44.6241 34.9245 44.0102 34.9245 44.0102C34.9245 44.0102 34.9297 44.0102 34.9297 44.0051L35.7548 41.8971C36.0253 41.2093 36.3593 40.5611 36.7577 39.9514C37.5828 38.6832 38.6639 37.6022 39.9269 36.7822C40.5366 36.3838 41.19 36.0446 41.8777 35.7742L43.8526 34.998C43.8526 34.998 45.0049 34.6013 45.3612 34.4081C46.2431 33.9298 46.7084 32.8651 46.7076 31.7841C46.7076 31.5969 46.6578 31.2517 46.6045 31.08C46.4912 30.7159 46.0499 29.8333 46.0499 29.8333L45.1706 27.8189C44.8753 27.1406 44.6546 26.4425 44.5026 25.7307C44.1832 26.2218 43.6714 26.6151 42.9648 26.8907L39.8196 28.1246L37.1655 29.1661L37.0625 29.2056L33.8976 30.454C32.31 31.0783 31.0521 32.3362 30.4278 33.9186L29.1845 37.0887L29.145 37.1918L28.1035 39.8458L26.8696 42.991C26.5897 43.6985 26.2008 44.2146 25.7045 44.5288C26.4197 44.6791 27.1169 44.9006 27.7961 45.1951Z" fill="#1E18CF"/>
<path d="M1.76133 27.7847L0.866625 29.8334L0.321393 31.0862L0.316241 31.0913L0.316238 31.0965C0.276741 31.3025 0.256992 31.5095 0.256992 31.7258C0.256992 32.8661 0.846879 33.863 1.73128 34.4383C1.73128 34.4434 1.73643 34.4434 1.73643 34.4434L1.74158 34.4434L2.94538 34.9157C2.94538 34.9157 2.94538 34.9208 2.95054 34.9208L5.05849 35.746C5.74626 36.0165 6.39453 36.3505 7.00416 36.7489C8.27237 37.574 9.35339 38.655 10.1734 39.9181C10.5718 40.5277 10.911 41.1812 11.1814 41.8689L11.9576 43.8438L12.5475 45.3524C13.1331 46.1681 14.0905 46.6996 15.1715 46.6988C15.3587 46.6988 15.545 46.6842 15.7219 46.6498L17.1223 46.041L19.1367 45.1618C19.815 44.8664 20.5131 44.6458 21.2249 44.4938C20.7338 44.1744 20.3405 43.6626 20.0649 42.956L18.831 39.8108L17.7895 37.1567L17.75 37.0537L16.5015 33.8888C15.8773 32.3011 14.6194 31.0432 13.0369 30.419L9.86686 29.1757L9.76382 29.1362L7.10978 28.0947L3.96459 26.8608C3.25707 26.5809 2.74103 26.1919 2.42677 25.6956C2.27651 26.4092 2.05584 27.1072 1.76133 27.7847Z" fill="#1E18CF"/>
<path d="M4.92858 11.032L2.82921 11.8555C2.82921 11.8555 1.84779 12.1929 1.54641 12.3604C1.40473 12.4385 1.19952 12.6162 1.04496 12.7708C0.231834 13.5839 -0.115058 14.7242 0.207789 15.7374C0.40871 16.3659 0.686913 16.9618 0.686913 16.9618C0.686913 16.9618 0.683474 16.9652 0.686909 16.9687L1.60136 19.0612C1.89845 19.7446 2.12341 20.4453 2.27367 21.164C2.58879 22.6571 2.58879 24.1992 2.27367 25.6855C2.12341 26.4042 1.89845 27.1117 1.6005 27.7961L0.7453 29.7589C0.7453 29.7589 0.206073 30.8631 0.0901572 31.2555C-0.197486 32.2266 0.230976 33.3163 1.00203 34.0873C1.13512 34.2204 1.41761 34.4308 1.57818 34.5158C1.91906 34.6952 2.86356 35.0095 2.86356 35.0095L4.92858 35.8192C5.49013 36.0407 6.02591 36.3052 6.5368 36.61C6.67676 36.6933 6.85192 36.5954 6.84334 36.4322C6.82101 35.9617 6.92576 35.4517 7.16447 34.909L8.52713 31.7862L9.67684 29.151L9.72235 29.0488L11.0893 25.9011C11.7762 24.3246 11.7762 22.5301 11.0927 20.9553L9.71891 17.8075L9.67341 17.7054L8.52369 15.0702L7.16103 11.9474C6.92491 11.4021 6.81758 10.8929 6.84076 10.4216C6.84935 10.2584 6.67419 10.1605 6.53423 10.2438C6.0242 10.5478 5.48927 10.8114 4.92858 11.032Z" fill="#FFC100"/>
<path d="M35.9151 4.88118L35.0917 2.78181L34.5868 1.499L34.5868 1.49214L34.5834 1.4887C34.4649 1.31354 34.3309 1.15211 34.1764 0.997552C33.3633 0.184422 32.2307 -0.106655 31.19 0.114873C31.1866 0.111438 31.1832 0.114876 31.1832 0.114876L31.1797 0.118313L29.9845 0.640367C29.9845 0.640367 29.9811 0.636924 29.9776 0.640359L27.8851 1.55481C27.2017 1.8519 26.501 2.07686 25.7823 2.22712C24.2892 2.54224 22.7471 2.54224 21.2608 2.22712C20.5421 2.07686 19.8346 1.8519 19.1502 1.55396L17.1874 0.698751L15.7183 0.055626C15.6994 0.0470397 15.6805 0.0418986 15.6599 0.0384642C14.6699 -0.115232 13.6215 0.191292 12.8581 0.95462C12.7251 1.08771 12.6023 1.23111 12.5009 1.38223L11.9368 2.81529L11.1271 4.88031C10.9056 5.44186 10.6411 5.97765 10.3363 6.48854C10.253 6.6285 10.3509 6.80366 10.5141 6.79507C10.9846 6.77275 11.4946 6.8775 12.0373 7.1162L15.1601 8.47886L17.7953 9.62857L17.8975 9.67408L21.0452 11.041C22.6217 11.7279 24.4163 11.7279 25.991 11.0445L29.1388 9.67065L29.2409 9.62514L31.8761 8.47543L34.9989 7.11277C35.5442 6.87664 36.0534 6.76932 36.5247 6.7925C36.6879 6.80109 36.7858 6.62592 36.7025 6.48596C36.3994 5.97679 36.1358 5.44187 35.9151 4.88118Z" fill="#FF045F"/>
<path d="M42.0714 35.8725L44.1708 35.0491C44.1708 35.0491 45.1522 34.7116 45.4536 34.5442C45.5953 34.4661 45.8005 34.2883 45.955 34.1338C46.7682 33.3206 47.115 32.1804 46.7922 31.1672C46.5913 30.5387 46.3131 29.9428 46.3131 29.9428C46.3131 29.9428 46.3165 29.9393 46.3131 29.9359L45.3986 27.8434C45.1015 27.1599 44.8766 26.4593 44.7263 25.7406C44.4112 24.2474 44.4112 22.7053 44.7263 21.219C44.8766 20.5003 45.1015 19.7928 45.3995 19.1085L46.2547 17.1456C46.2547 17.1456 46.7948 16.0406 46.9098 15.649C47.1975 14.6779 46.769 13.5883 45.9979 12.8173C45.8649 12.6842 45.5824 12.4738 45.4218 12.3888C45.0809 12.2093 44.1364 11.8951 44.1364 11.8951L42.0714 11.0854C41.5099 10.8639 40.9741 10.5994 40.4632 10.2946C40.3232 10.2113 40.1481 10.3092 40.1566 10.4723C40.179 10.9429 40.0742 11.4529 39.8355 11.9955L38.4729 15.1184L37.3231 17.7536L37.2776 17.8557L35.9107 21.0035C35.2238 22.58 35.2238 24.3745 35.9073 25.9492L37.2811 29.097L37.3266 29.1992L38.4763 31.8343L39.8389 34.9572C40.0751 35.5024 40.1824 36.0116 40.1592 36.483C40.1506 36.6461 40.3258 36.744 40.4658 36.6607C40.9766 36.3576 41.5116 36.094 42.0714 35.8725Z" fill="#FFC100"/>
<path d="M11.0849 42.0238L11.9083 44.1231L12.4132 45.4059L12.4132 45.4128L12.4166 45.4162C12.5351 45.5914 12.669 45.7528 12.8236 45.9074C13.6367 46.7205 14.7693 47.0116 15.8099 46.7901C15.8134 46.7935 15.8168 46.7901 15.8168 46.7901L15.8202 46.7866L17.0155 46.2646C17.0155 46.2646 17.0189 46.268 17.0223 46.2646L19.1148 45.3501C19.7983 45.053 20.499 44.8281 21.2176 44.6778C22.7108 44.3627 24.2529 44.3627 25.7392 44.6778C26.4579 44.8281 27.1654 45.053 27.8498 45.351L29.8126 46.2062L31.2817 46.8493C31.3006 46.8579 31.3195 46.8631 31.3401 46.8665C32.3301 47.0202 33.3785 46.7136 34.1418 45.9503C34.2749 45.8172 34.3977 45.6738 34.499 45.5227L35.0632 44.0897L35.8729 42.0246C36.0944 41.4631 36.3588 40.9273 36.6637 40.4164C36.7469 40.2764 36.6491 40.1013 36.4859 40.1099C36.0154 40.1322 35.5054 40.0274 34.9627 39.7887L31.8398 38.4261L29.2047 37.2764L29.1025 37.2309L25.9547 35.8639C24.3783 35.177 22.5837 35.177 21.009 35.8605L17.8612 37.2343L17.759 37.2798L15.1239 38.4295L12.001 39.7922C11.4558 40.0283 10.9466 40.1356 10.4752 40.1124C10.3121 40.1039 10.2142 40.279 10.2975 40.419C10.5997 40.929 10.8642 41.4631 11.0849 42.0238Z" fill="#FF045F"/>
</svg>
