<svg width="21" height="17" viewBox="0 0 21 17" fill="none" xmlns="http://www.w3.org/2000/svg">
<path d="M4.2001 10.7625C3.99124 10.7625 3.79094 10.8454 3.64325 10.9931C3.49557 11.1408 3.4126 11.3411 3.4126 11.55C3.4126 11.7588 3.49557 11.9591 3.64325 12.1068C3.79094 12.2545 3.99124 12.3375 4.2001 12.3375H10.5001C10.709 12.3375 10.9093 12.2545 11.0569 12.1068C11.2046 11.9591 11.2876 11.7588 11.2876 11.55C11.2876 11.3411 11.2046 11.1408 11.0569 10.9931C10.9093 10.8454 10.709 10.7625 10.5001 10.7625H4.2001Z" fill="black"/>
<path fill-rule="evenodd" clip-rule="evenodd" d="M3.15 0C2.31457 0 1.51335 0.331874 0.922614 0.922614C0.331874 1.51335 0 2.31457 0 3.15V13.65C0 14.4854 0.331874 15.2866 0.922614 15.8774C1.51335 16.4681 2.31457 16.8 3.15 16.8H17.85C18.6854 16.8 19.4866 16.4681 20.0774 15.8774C20.6681 15.2866 21 14.4854 21 13.65V3.15C21 2.31457 20.6681 1.51335 20.0774 0.922614C19.4866 0.331874 18.6854 0 17.85 0H3.15ZM17.85 1.575H3.15C2.73228 1.575 2.33168 1.74094 2.03631 2.03631C1.74094 2.33168 1.575 2.73228 1.575 3.15V4.4625H19.425V3.15C19.425 2.73228 19.2591 2.33168 18.9637 2.03631C18.6683 1.74094 18.2677 1.575 17.85 1.575ZM1.575 13.65V6.0375H19.425V13.65C19.425 14.0677 19.2591 14.4683 18.9637 14.7637C18.6683 15.0591 18.2677 15.225 17.85 15.225H3.15C2.73228 15.225 2.33168 15.0591 2.03631 14.7637C1.74094 14.4683 1.575 14.0677 1.575 13.65Z" fill="black"/>
</svg>
