<svg width="28" height="32" viewBox="0 0 28 32" fill="none" xmlns="http://www.w3.org/2000/svg">
<path d="M14 0C13.0717 0 12.1815 0.374602 11.5251 1.0414C10.8687 1.70819 10.5 2.61256 10.5 3.55556V4.16178C6.4225 5.62667 3.5 9.57867 3.5 14.2222V23.1111H1.75C1.28587 23.1111 0.840752 23.2984 0.512563 23.6318C0.184375 23.9652 0 24.4174 0 24.8889C0 25.3604 0.184375 25.8126 0.512563 26.146C0.840752 26.4794 1.28587 26.6667 1.75 26.6667H26.25C26.7141 26.6667 27.1593 26.4794 27.4874 26.146C27.8156 25.8126 28 25.3604 28 24.8889C28 24.4174 27.8156 23.9652 27.4874 23.6318C27.1593 23.2984 26.7141 23.1111 26.25 23.1111H24.5V14.2222C24.5003 12.0159 23.8273 9.86372 22.5737 8.06202C21.32 6.26033 19.5475 4.89771 17.5 4.16178V3.55556C17.5 2.61256 17.1313 1.70819 16.4749 1.0414C15.8185 0.374602 14.9283 0 14 0ZM14 32C13.0717 32 12.1815 31.6254 11.5251 30.9586C10.8687 30.2918 10.5 29.3874 10.5 28.4444H17.5C17.5 29.3874 17.1313 30.2918 16.4749 30.9586C15.8185 31.6254 14.9283 32 14 32Z" fill="white"/>
</svg>
