<svg width="34" height="14" viewBox="0 0 34 14" fill="none" xmlns="http://www.w3.org/2000/svg">
<path d="M4.73808 0C1.97127 0 0 1.89161 0 4.48162V4.49932C0 6.92136 1.7149 8.70697 4.1635 8.70697C5.9137 8.70697 7.02747 7.81416 7.49605 6.80651H7.67276C7.67276 6.90366 7.66401 7.00092 7.66401 7.09817C7.56675 9.53792 6.70925 11.5179 4.68498 11.5179C3.56236 11.5179 2.77567 10.9345 2.43975 10.0418L2.4133 9.95339H0.16796L0.185662 10.0505C0.592286 12.0041 2.34249 13.3919 4.68498 13.3919C7.89382 13.3919 9.82969 10.8462 9.82969 6.55014V6.53244C9.82969 1.93586 7.46065 0 4.73808 0ZM4.72923 6.95676C3.27955 6.95676 2.22763 5.896 2.22763 4.41976V4.40206C2.22763 2.97893 3.35025 1.85631 4.75578 1.85631C6.17007 1.85631 7.27498 2.99663 7.27498 4.45517V4.47277C7.27498 5.9137 6.17007 6.95676 4.72923 6.95676ZM13.3399 4.80869C14.1532 4.80869 14.7455 4.18995 14.7455 3.4121C14.7455 2.62531 14.1532 2.01542 13.3399 2.01542C12.5355 2.01542 11.9345 2.62531 11.9345 3.4121C11.9345 4.18995 12.5355 4.80869 13.3399 4.80869ZM13.3399 11.3677C14.1532 11.3677 14.7455 10.7578 14.7455 9.97099C14.7455 9.1843 14.1532 8.57441 13.3399 8.57441C12.5355 8.57441 11.9345 9.1843 11.9345 9.97099C11.9345 10.7578 12.5355 11.3677 13.3399 11.3677ZM23.038 13.0737H25.2214V10.6251H26.9363V8.74237H25.2214V0.318219H21.9949C20.2623 2.95238 18.4503 5.88715 16.7972 8.75997V10.6251H23.038V13.0737ZM18.9187 8.79537V8.66281C20.1563 6.49704 21.6325 4.13695 22.9407 2.13913H23.0733V8.79537H18.9187ZM31.7194 13.0737H34V0.318219H31.7283L28.3957 2.66071V4.80869L31.5691 2.56345H31.7194V13.0737Z" fill="white"/>
</svg>
