<svg width="20" height="22" viewBox="0 0 20 22" fill="none" xmlns="http://www.w3.org/2000/svg">
<path d="M10.5503 7.72927C10.5503 7.57264 10.488 7.42241 10.3773 7.31166C10.2665 7.2009 10.1163 7.13867 9.95966 7.13867C9.80302 7.13867 9.6528 7.2009 9.54204 7.31166C9.43128 7.42241 9.36906 7.57264 9.36906 7.72927V8.35531C8.87209 8.51785 8.45013 8.85364 8.18016 9.30143C7.91019 9.74921 7.81021 10.2791 7.89846 10.7945C7.89846 11.2644 8.08513 11.7151 8.41741 12.0474C8.74969 12.3796 9.20035 12.5663 9.67026 12.5663H10.2609C10.4175 12.5663 10.5677 12.6285 10.6785 12.7393C10.7892 12.85 10.8515 13.0003 10.8515 13.1569V13.6294C10.8515 13.8643 10.7581 14.0897 10.592 14.2558C10.4259 14.422 10.2005 14.5153 9.96556 14.5153C9.73061 14.5153 9.50528 14.422 9.33914 14.2558C9.173 14.0897 9.07966 13.8643 9.07966 13.6294C9.07966 13.4727 9.01744 13.3225 8.90668 13.2118C8.79592 13.101 8.6457 13.0388 8.48906 13.0388C8.33242 13.0388 8.1822 13.101 8.07144 13.2118C7.96068 13.3225 7.89846 13.4727 7.89846 13.6294C7.8983 14.0721 8.04147 14.5029 8.30656 14.8574C8.57165 15.2119 8.94441 15.4711 9.36906 15.5961V16.2221C9.36906 16.3788 9.43128 16.529 9.54204 16.6397C9.6528 16.7505 9.80302 16.8127 9.95966 16.8127C10.1163 16.8127 10.2665 16.7505 10.3773 16.6397C10.488 16.529 10.5503 16.3788 10.5503 16.2221V15.5961C11.0472 15.4335 11.4692 15.0978 11.7392 14.65C12.0091 14.2022 12.1091 13.6723 12.0209 13.1569C12.0209 12.687 11.8342 12.2363 11.5019 11.904C11.1696 11.5718 10.719 11.3851 10.2491 11.3851H9.65845C9.50181 11.3851 9.35159 11.3229 9.24083 11.2121C9.13007 11.1014 9.06785 10.9511 9.06785 10.7945V10.322C9.06785 10.0871 9.16119 9.86173 9.32733 9.69559C9.49346 9.52945 9.7188 9.43611 9.95375 9.43611C10.1887 9.43611 10.414 9.52945 10.5802 9.69559C10.7463 9.86173 10.8397 10.0871 10.8397 10.322C10.8397 10.4787 10.9019 10.6289 11.0126 10.7396C11.1234 10.8504 11.2736 10.9126 11.4303 10.9126C11.5869 10.9126 11.7371 10.8504 11.8479 10.7396C11.9586 10.6289 12.0209 10.4787 12.0209 10.322C12.021 9.87935 11.8778 9.44852 11.6128 9.094C11.3477 8.73949 10.9749 8.48033 10.5503 8.35531V7.72927Z" fill="black"/>
<path d="M19.4094 11.3851C19.2528 11.3851 19.1025 11.4473 18.9918 11.558C18.881 11.6688 18.8188 11.819 18.8188 11.9757C18.8188 14.3252 17.8854 16.5785 16.224 18.2399C14.5627 19.9013 12.3093 20.8347 9.95977 20.8347C-0.925015 20.4744 -2.04716 5.23689 8.58958 3.26428L6.49294 4.72898C6.42934 4.77357 6.37515 4.83026 6.33346 4.8958C6.29177 4.96134 6.2634 5.03445 6.24996 5.11095C6.23652 5.18746 6.23829 5.26586 6.25515 5.34168C6.27201 5.41751 6.30365 5.48927 6.34824 5.55287C6.43831 5.68131 6.57571 5.76871 6.73022 5.79585C6.80673 5.80928 6.88513 5.80752 6.96095 5.79066C7.03678 5.77379 7.10853 5.74216 7.17213 5.69756L10.9756 3.03395C11.0598 2.97436 11.1269 2.89377 11.1702 2.80021C11.2136 2.70664 11.2317 2.60335 11.2227 2.50062C11.2137 2.39789 11.178 2.29929 11.1191 2.21464C11.0603 2.12999 10.9802 2.06223 10.887 2.01811L6.68193 0.0514105C6.54068 -0.0117269 6.38029 -0.0169114 6.23525 0.0369718C6.09021 0.0908551 5.97211 0.199503 5.90634 0.339552C5.84057 0.479601 5.83239 0.639868 5.88355 0.785888C5.93471 0.931909 6.04113 1.05202 6.17992 1.1204L8.30609 2.11261C-3.67131 4.47502 -2.32474 21.6025 9.95977 21.9864C12.6175 21.9864 15.1668 20.9326 17.0489 19.0561C18.9309 17.1796 19.9922 14.6334 20 11.9757C20 11.819 19.9378 11.6688 19.827 11.558C19.7163 11.4473 19.566 11.3851 19.4094 11.3851Z" fill="black"/>
</svg>
