<svg width="23" height="26" viewBox="0 0 23 26" fill="none" xmlns="http://www.w3.org/2000/svg">
<path d="M19.1667 6.50503H18.7194C19.0111 5.89779 19.1639 5.23135 19.1667 4.55554C19.1705 3.6501 18.9079 2.7642 18.4125 2.01187C17.9172 1.25955 17.2118 0.675238 16.3872 0.334148C15.5626 -0.0069432 14.6564 -0.0892003 13.7855 0.0979645C12.9145 0.285129 12.1185 0.73315 11.5 1.38436C10.8815 0.73315 10.0855 0.285129 9.21454 0.0979645C8.34357 -0.0892003 7.43745 -0.0069432 6.61283 0.334148C5.7882 0.675238 5.08282 1.25955 4.58746 2.01187C4.09211 2.7642 3.82947 3.6501 3.83333 4.55554C3.83606 5.23135 3.98894 5.89779 4.28056 6.50503H3.83333C2.81667 6.50503 1.84165 6.91582 1.12276 7.64702C0.403868 8.37823 0 9.36995 0 10.404V13.0034C0 13.348 0.134623 13.6786 0.374252 13.9224C0.613882 14.1661 0.93889 14.303 1.27778 14.303H2.55556V22.101C2.55556 23.1351 2.95942 24.1268 3.67831 24.858C4.3972 25.5892 5.37223 26 6.38889 26H16.6111C17.6278 26 18.6028 25.5892 19.3217 24.858C20.0406 24.1268 20.4444 23.1351 20.4444 22.101V14.303H21.7222C22.0611 14.303 22.3861 14.1661 22.6257 13.9224C22.8654 13.6786 23 13.348 23 13.0034V10.404C23 9.36995 22.5961 8.37823 21.8772 7.64702C21.1584 6.91582 20.1833 6.50503 19.1667 6.50503ZM10.2222 23.4007H6.38889C6.05 23.4007 5.72499 23.2637 5.48536 23.02C5.24573 22.7763 5.11111 22.4457 5.11111 22.101V14.303H10.2222V23.4007ZM10.2222 11.7037H2.55556V10.404C2.55556 10.0593 2.69018 9.72876 2.92981 9.48503C3.16944 9.24129 3.49445 9.10436 3.83333 9.10436H10.2222V11.7037ZM10.2222 6.50503H8.30556C7.92647 6.50503 7.55591 6.3907 7.24071 6.17648C6.92552 5.96227 6.67985 5.6578 6.53479 5.30158C6.38972 4.94535 6.35176 4.55337 6.42572 4.17521C6.49967 3.79704 6.68222 3.44968 6.95027 3.17703C7.21832 2.90439 7.55983 2.71872 7.93163 2.6435C8.30343 2.56828 8.68881 2.60688 9.03903 2.75444C9.38926 2.90199 9.6886 3.15186 9.89921 3.47246C10.1098 3.79305 10.2222 4.16996 10.2222 4.55554V6.50503ZM12.7778 4.55554C12.7778 4.16996 12.8902 3.79305 13.1008 3.47246C13.3114 3.15186 13.6107 2.90199 13.961 2.75444C14.3112 2.60688 14.6966 2.56828 15.0684 2.6435C15.4402 2.71872 15.7817 2.90439 16.0497 3.17703C16.3178 3.44968 16.5003 3.79704 16.5743 4.17521C16.6482 4.55337 16.6103 4.94535 16.4652 5.30158C16.3201 5.6578 16.0745 5.96227 15.7593 6.17648C15.4441 6.3907 15.0735 6.50503 14.6944 6.50503H12.7778V4.55554ZM17.8889 22.101C17.8889 22.4457 17.7543 22.7763 17.5146 23.02C17.275 23.2637 16.95 23.4007 16.6111 23.4007H12.7778V14.303H17.8889V22.101ZM20.4444 11.7037H12.7778V9.10436H19.1667C19.5056 9.10436 19.8306 9.24129 20.0702 9.48503C20.3098 9.72876 20.4444 10.0593 20.4444 10.404V11.7037Z" fill="#FF045F"/>
</svg>
