<svg width="22" height="19" viewBox="0 0 22 19" fill="none" xmlns="http://www.w3.org/2000/svg">
<path d="M6.26144 6.23438L7.22822 0H2.2L0.099 5.34375C0.0342222 5.53375 0 5.73088 0 5.9375C0 7.2485 1.40556 8.3125 3.14233 8.3125C4.74344 8.3125 6.06711 7.40525 6.26144 6.23438ZM11 8.3125C12.7356 8.3125 14.1423 7.2485 14.1423 5.9375C14.1423 5.88881 14.1387 5.84013 14.1362 5.79381L13.5141 0H8.48589L7.86256 5.78906C7.86011 5.83775 7.85767 5.88644 7.85767 5.9375C7.85767 7.2485 9.26444 8.3125 11 8.3125ZM17.1111 9.55462V14.25H4.88889V9.56175C4.35356 9.74938 3.76444 9.85625 3.14233 9.85625C2.904 9.85625 2.673 9.82894 2.44444 9.79806V17.3375C2.44444 18.2519 3.21322 19 4.15311 19H17.8444C18.7856 19 19.5556 18.2507 19.5556 17.3375V9.79925C19.3245 9.83371 19.0914 9.85315 18.8577 9.85744C18.2617 9.85685 17.6705 9.75435 17.1111 9.55462ZM21.9022 5.34375L19.7988 0H14.7718L15.7373 6.22487C15.9256 7.4005 17.2492 8.3125 18.8577 8.3125C20.5932 8.3125 22 7.2485 22 5.9375C22 5.73088 21.9658 5.53375 21.9022 5.34375Z" fill="black"/>
</svg>
