<svg width="33" height="25" viewBox="0 0 33 25" fill="none" xmlns="http://www.w3.org/2000/svg">
<path d="M1.28 6.2668H6.4L13.92 0.279464C14.1083 0.129437 14.3353 0.0354051 14.575 0.00820535C14.8146 -0.0189944 15.0571 0.0217439 15.2745 0.125726C15.4919 0.229709 15.6753 0.392704 15.8037 0.595929C15.932 0.799153 16.0001 1.03434 16 1.27438V22.7256C16.0001 22.9657 15.932 23.2008 15.8037 23.4041C15.6753 23.6073 15.4919 23.7703 15.2745 23.8743C15.0571 23.9783 14.8146 24.019 14.575 23.9918C14.3353 23.9646 14.1083 23.8706 13.92 23.7205L6.4 17.7319H1.28C0.940523 17.7319 0.61495 17.5977 0.374903 17.3588C0.134857 17.1199 0 16.7959 0 16.458V7.54071C0 7.20285 0.134857 6.87882 0.374903 6.63992C0.61495 6.40102 0.940523 6.2668 1.28 6.2668Z" fill="white"/>
<path d="M22 5C23.9199 6.9885 25 9.68838 25 12.5C25 15.3116 23.9199 18.0115 22 20" stroke="white" stroke-width="2" stroke-miterlimit="10"/>
<path d="M27 1C30.2016 4.05065 32 8.18708 32 12.5C32 16.8129 30.2016 20.9493 27 24" stroke="white" stroke-width="2" stroke-miterlimit="10"/>
<path d="M19 9C19.6403 9.92859 20 11.1875 20 12.5C20 13.8125 19.6403 15.0714 19 16" stroke="white" stroke-width="2" stroke-miterlimit="10"/>
</svg>
