<svg width="31" height="31" viewBox="0 0 31 31" fill="none" xmlns="http://www.w3.org/2000/svg">
<path d="M12.5591 7.1134C12.1556 2.46945 7.31375 0.190805 7.10883 0.0977995C6.91727 0.00769738 6.7026 -0.0210902 6.49409 0.0153626C0.904401 0.943307 0.0636231 4.19851 0.0298229 4.33379C-0.0161635 4.52231 -0.00884937 4.71991 0.050948 4.90451C6.71802 25.6025 20.5739 29.439 25.1285 30.7009C25.4792 30.7982 25.7686 30.8764 25.9883 30.9483C26.239 31.0302 26.5114 31.0144 26.7509 30.9039C26.8903 30.8405 30.1816 29.2889 30.9865 24.2286C31.0222 24.0077 30.9867 23.7811 30.8851 23.5818C30.8133 23.4423 29.0916 20.1638 24.3173 19.0055C24.1553 18.964 23.9857 18.9626 23.8231 19.0012C23.6604 19.0399 23.5096 19.1175 23.3836 19.2274C21.8774 20.5147 19.7965 21.8865 18.8987 22.0282C12.8802 19.0837 9.5192 13.4336 9.39245 12.3619C9.31851 11.7595 10.698 9.64358 12.2845 7.92297C12.3842 7.81468 12.4601 7.68671 12.5074 7.54727C12.5547 7.40784 12.5723 7.26005 12.5591 7.1134Z" fill="black"/>
</svg>
