<svg width="18" height="17" viewBox="0 0 18 17" fill="none" xmlns="http://www.w3.org/2000/svg">
<path d="M17.9705 15.4604L17.1481 12.9934C17.1012 12.8526 17.1165 12.7013 17.1844 12.5695C17.8024 11.3688 18.0577 9.95113 17.7903 8.45685C17.3803 6.16616 15.7029 4.2627 13.5273 3.53271C14.0887 4.88853 14.2599 6.39603 13.9794 7.89134C13.4097 10.9306 10.976 13.3404 7.92359 13.8878C7.52848 13.9587 7.1293 13.9932 6.73315 14.0032C7.66016 15.0034 8.89752 15.7143 10.2778 15.9619C11.7629 16.2282 13.1739 15.9803 14.371 15.3715C14.5024 15.3047 14.6526 15.2899 14.7924 15.3365L17.2688 16.1619C17.7025 16.3065 18.115 15.894 17.9705 15.4604Z" fill="black" fill-opacity="0.5"/>
<path d="M5.30441 0.11491C2.732 0.592894 0.670573 2.68282 0.209604 5.25832C-0.0577716 6.7526 0.197463 8.17025 0.815464 9.37095C0.883386 9.50281 0.898667 9.65412 0.851839 9.79484L0.0294159 12.2618C-0.1151 12.6955 0.297401 13.108 0.731042 12.9635L3.20745 12.138C3.34733 12.0914 3.49761 12.1063 3.62891 12.173C4.82595 12.7818 6.23694 13.0297 7.72208 12.7634C10.2913 12.3027 12.3759 10.2463 12.8568 7.68082C13.7042 3.16141 9.82246 -0.724623 5.30441 0.11491ZM6.94213 8.43692H3.74366C3.42819 8.43692 3.17248 8.18126 3.17248 7.86575C3.17248 7.55028 3.42819 7.29457 3.74366 7.29457H6.94213C7.25764 7.29457 7.5133 7.55028 7.5133 7.86575C7.5133 8.18126 7.25764 8.43692 6.94213 8.43692ZM9.22677 6.15228H3.74361C3.42814 6.15228 3.17244 5.89662 3.17244 5.5811C3.17244 5.26563 3.42814 5.00993 3.74361 5.00993H9.22672C9.54224 5.00993 9.7979 5.26563 9.7979 5.5811C9.79794 5.89662 9.54229 6.15228 9.22677 6.15228Z" fill="black" fill-opacity="0.5"/>
</svg>
