<svg width="18" height="16" viewBox="0 0 18 16" fill="none" xmlns="http://www.w3.org/2000/svg">
<path d="M1.379 8.27402C0.494906 7.36948 -6.24955e-05 6.15485 5.91848e-09 4.89002C5.91848e-09 2.18902 2.216 1.6727e-05 4.95 1.6727e-05C6.624 1.6727e-05 8.104 0.820017 9 2.07702C9.46037 1.43279 10.0682 0.90809 10.7728 0.54676C11.4774 0.185429 12.2582 -0.00203906 13.05 1.6727e-05C15.784 1.6727e-05 18 2.18902 18 4.88902C18 5.546 17.8665 6.19613 17.6074 6.79988C17.3483 7.40363 16.9692 7.94838 16.493 8.40102L9 16L1.379 8.27402Z" fill="white"/>
</svg>
