<svg width="20" height="25" viewBox="0 0 20 25" fill="none" xmlns="http://www.w3.org/2000/svg">
<path opacity="0.8" d="M7.31058 16.9373C9.11017 16.7923 10.918 16.7923 12.7176 16.9373C13.6976 16.9944 14.6729 17.117 15.6374 17.3043C17.7245 17.7269 19.0871 18.4164 19.6711 19.5285C20.1096 20.3964 20.1096 21.4297 19.6711 22.2976C19.0871 23.4097 17.7786 24.1437 15.6158 24.5218C14.652 24.7161 13.6765 24.8425 12.696 24.8999C11.7876 25 10.8792 25 9.96003 25H8.30547C7.95942 24.9555 7.62419 24.9333 7.29977 24.9333C6.31922 24.8828 5.34346 24.7602 4.37997 24.5663C2.29285 24.1659 0.930278 23.4542 0.346319 22.3421C0.120889 21.9113 0.0020426 21.43 0.000130272 20.9408C-0.00443039 20.4486 0.110822 19.9631 0.335505 19.5285C0.90865 18.4164 2.27122 17.6935 4.37997 17.3043C5.3477 17.1143 6.3268 16.9917 7.31058 16.9373ZM10.0033 0C13.6286 0 16.5674 3.02228 16.5674 6.75044C16.5674 10.4786 13.6286 13.5009 10.0033 13.5009C6.37801 13.5009 3.43914 10.4786 3.43914 6.75044C3.43914 3.02228 6.37801 0 10.0033 0Z" fill="white"/>
</svg>
