<svg width="155" height="35" viewBox="0 0 155 35" fill="none" xmlns="http://www.w3.org/2000/svg">
<path d="M0 17.5304V17.468V15.9256C0 15.7134 0.494804 15.5425 1.10879 15.5425C1.72278 15.5425 2.21759 15.7134 2.21759 15.9256V17.468V17.5304V19.0728C2.21759 19.2849 1.72278 19.4559 1.10879 19.4559C0.494804 19.4559 0 19.2849 0 19.0728V17.5304Z" fill="black"/>
<path d="M5.26953 17.5307V17.4683V13.9393C5.26953 13.7271 5.76433 13.5562 6.37832 13.5562C6.99231 13.5562 7.48712 13.7271 7.48712 13.9393V17.4683V17.5307V21.0598C7.48712 21.272 6.99231 21.4429 6.37832 21.4429C5.76433 21.4429 5.26953 21.272 5.26953 21.0598V17.5307Z" fill="black"/>
<path d="M10.5352 17.5314V17.469V9.9666C10.5352 9.75446 11.03 9.5835 11.644 9.5835C12.2579 9.5835 12.7527 9.75446 12.7527 9.9666V17.469V17.5314V25.0338C12.7527 25.246 12.2579 25.4169 11.644 25.4169C11.03 25.4169 10.5352 25.246 10.5352 25.0338V17.5314Z" fill="black"/>
<path d="M15.8047 17.5305V17.4681V5.59551C15.8047 5.38337 16.2995 5.2124 16.9135 5.2124C17.5275 5.2124 18.0223 5.38337 18.0223 5.59551V17.4693V17.5317V29.4055C18.0223 29.6177 17.5275 29.7887 16.9135 29.7887C16.2995 29.7887 15.8047 29.6177 15.8047 29.4055V17.5305Z" fill="black"/>
<path d="M21.0742 17.531V17.4686V3.57695C21.0742 3.36481 21.569 3.19385 22.183 3.19385C22.797 3.19385 23.2918 3.36481 23.2918 3.57695V17.4686V17.531V31.4227C23.2918 31.6349 22.797 31.8058 22.183 31.8058C21.569 31.8058 21.0742 31.6349 21.0742 31.4227V17.531Z" fill="black"/>
<path d="M26.3403 17.5305V17.4681V5.59551C26.3403 5.38337 26.8351 5.2124 27.4491 5.2124C28.0631 5.2124 28.5579 5.38337 28.5579 5.59551V17.4693V17.5317V29.4055C28.5579 29.6177 28.0631 29.7887 27.4491 29.7887C26.8351 29.7887 26.3403 29.6177 26.3403 29.4055V17.5305Z" fill="black"/>
<path d="M31.6099 17.5314V17.469V9.9666C31.6099 9.75446 32.1047 9.5835 32.7187 9.5835C33.3326 9.5835 33.8275 9.75446 33.8275 9.9666V17.469V17.5314V25.0338C33.8275 25.246 33.3326 25.4169 32.7187 25.4169C32.1047 25.4169 31.6099 25.246 31.6099 25.0338V17.5314Z" fill="black"/>
<path d="M36.8794 17.5305V17.4681V13.9041C36.8794 13.692 37.3742 13.521 37.9882 13.521C38.6022 13.521 39.097 13.692 39.097 13.9041V17.4681V17.5305V21.0945C39.097 21.3067 38.6022 21.4776 37.9882 21.4776C37.3742 21.4776 36.8794 21.3067 36.8794 21.0945V17.5305Z" fill="black"/>
<path d="M42.1484 17.531V17.4687V15.8851C42.1484 15.6729 42.6432 15.502 43.2572 15.502C43.8712 15.502 44.366 15.6729 44.366 15.8851V17.4687V17.531V19.1146C44.366 19.3268 43.8712 19.4977 43.2572 19.4977C42.6432 19.4977 42.1484 19.3268 42.1484 19.1146V17.531Z" fill="black"/>
<path d="M47.4146 17.5298V17.4674V11.8543C47.4146 11.6422 47.9094 11.4712 48.5233 11.4712C49.1373 11.4712 49.6321 11.6422 49.6321 11.8543V17.4686V17.531V23.1453C49.6321 23.3575 49.1373 23.5285 48.5233 23.5285C47.9094 23.5285 47.4146 23.3575 47.4146 23.1453V17.5298Z" fill="black"/>
<path d="M52.6841 17.5309V17.4685V9.14873C52.6841 8.93659 53.1789 8.76562 53.7929 8.76562C54.4069 8.76562 54.9017 8.93659 54.9017 9.14873V17.4685V17.5309V25.8507C54.9017 26.0628 54.4069 26.2338 53.7929 26.2338C53.1789 26.2338 52.6841 26.0628 52.6841 25.8507V17.5309Z" fill="black"/>
<path d="M57.9536 17.531V17.4686V3.57695C57.9536 3.36481 58.4484 3.19385 59.0624 3.19385C59.6764 3.19385 60.1712 3.36481 60.1712 3.57695V17.4686V17.531V31.4227C60.1712 31.6349 59.6764 31.8058 59.0624 31.8058C58.4484 31.8058 57.9536 31.6349 57.9536 31.4227V17.531Z" fill="black"/>
<path d="M63.2192 17.5304V17.468V6.56133C63.2192 6.34919 63.714 6.17822 64.328 6.17822C64.942 6.17822 65.4368 6.34919 65.4368 6.56133V17.468V17.5304V28.4371C65.4368 28.6493 64.942 28.8202 64.328 28.8202C63.714 28.8202 63.2192 28.6493 63.2192 28.4371V17.5304Z" fill="black"/>
<path d="M68.4888 17.5307V17.4683V10.8606C68.4888 10.6485 68.9836 10.4775 69.5976 10.4775C70.2116 10.4775 70.7064 10.6485 70.7064 10.8606V17.4696V17.5319V24.1409C70.7064 24.353 70.2116 24.524 69.5976 24.524C68.9836 24.524 68.4888 24.353 68.4888 24.1409V17.5307Z" fill="black"/>
<path d="M73.7583 17.5306V17.4682V14.2811C73.7583 14.0689 74.2531 13.8979 74.8671 13.8979C75.4811 13.8979 75.9759 14.0689 75.9759 14.2811V17.4682V17.5306V20.7178C75.9759 20.9299 75.4811 21.1009 74.8671 21.1009C74.2531 21.1009 73.7583 20.9299 73.7583 20.7178V17.5306Z" fill="black"/>
<path d="M79.0244 17.5308V17.4684V7.12822C79.0244 6.91608 79.5192 6.74512 80.1332 6.74512C80.7472 6.74512 81.242 6.91608 81.242 7.12822V17.4696V17.532V27.8734C81.242 28.0855 80.7472 28.2565 80.1332 28.2565C79.5192 28.2565 79.0244 28.0855 79.0244 27.8734V17.5308Z" fill="black"/>
<path d="M84.2935 17.5304V17.468V3.80596C84.2935 3.59381 84.7883 3.42285 85.4023 3.42285C86.0162 3.42285 86.511 3.59381 86.511 3.80596V17.468V17.5304V31.1925C86.511 31.4046 86.0162 31.5756 85.4023 31.5756C84.7883 31.5756 84.2935 31.4046 84.2935 31.1925V17.5304Z" fill="black"/>
<path d="M89.563 17.5301V17.4677V2.01738C89.563 1.80524 90.0578 1.63428 90.6718 1.63428C91.2858 1.63428 91.7806 1.80524 91.7806 2.01738V17.4677V17.5301V32.9817C91.7806 33.1938 91.2858 33.3648 90.6718 33.3648C90.0578 33.3648 89.563 33.1938 89.563 32.9817V17.5301Z" fill="black"/>
<path d="M94.8291 17.5306V17.4682V0.383107C94.8291 0.170963 95.3239 0 95.9379 0C96.5519 0 97.0467 0.170963 97.0467 0.383107V17.4694V17.5318V34.6169C97.0467 34.829 96.5519 35 95.9379 35C95.3239 35 94.8291 34.829 94.8291 34.6169V17.5306Z" fill="black"/>
<path d="M100.099 17.5301V17.4677V2.01738C100.099 1.80524 100.593 1.63428 101.207 1.63428C101.821 1.63428 102.316 1.80524 102.316 2.01738V17.4677V17.5301V32.9817C102.316 33.1938 101.821 33.3648 101.207 33.3648C100.593 33.3648 100.099 33.1938 100.099 32.9817V17.5301Z" fill="black"/>
<path d="M105.368 17.5304V17.468V3.80596C105.368 3.59381 105.862 3.42285 106.476 3.42285C107.09 3.42285 107.585 3.59381 107.585 3.80596V17.468V17.5304V31.1925C107.585 31.4046 107.09 31.5756 106.476 31.5756C105.862 31.5756 105.368 31.4046 105.368 31.1925V17.5304Z" fill="black"/>
<path d="M110.634 17.5307V17.4683V6.87236C110.634 6.66022 111.129 6.48926 111.743 6.48926C112.357 6.48926 112.851 6.66022 112.851 6.87236V17.4683V17.5307V28.1267C112.851 28.3388 112.357 28.5098 111.743 28.5098C111.129 28.5098 110.634 28.3388 110.634 28.1267V17.5307Z" fill="black"/>
<path d="M115.903 17.5309V17.4685V16.283C115.903 16.0709 116.398 15.8999 117.012 15.8999C117.626 15.8999 118.121 16.0709 118.121 16.283V17.4685V17.5309V18.7164C118.121 18.9286 117.626 19.0995 117.012 19.0995C116.398 19.0995 115.903 18.9286 115.903 18.7164V17.5309Z" fill="black"/>
<path d="M121.173 17.5304V17.468V13.8553C121.173 13.6431 121.668 13.4722 122.282 13.4722C122.896 13.4722 123.39 13.6431 123.39 13.8553V17.468V17.5304V21.143C123.39 21.3552 122.896 21.5261 122.282 21.5261C121.668 21.5261 121.173 21.3552 121.173 21.143V17.5304Z" fill="black"/>
<path d="M126.439 17.5305V17.4681V9.8958C126.439 9.68366 126.934 9.5127 127.548 9.5127C128.162 9.5127 128.657 9.68366 128.657 9.8958V17.4693V17.5317V25.1053C128.657 25.3174 128.162 25.4884 127.548 25.4884C126.934 25.4884 126.439 25.3174 126.439 25.1053V17.5305Z" fill="black"/>
<path d="M131.708 17.5302V17.4678V4.95635C131.708 4.74421 132.203 4.57324 132.817 4.57324H133.926V17.4691V17.5315V30.0442C133.926 30.2564 133.431 30.4273 132.817 30.4273C132.203 30.4273 131.708 30.2564 131.708 30.0442V17.5302Z" fill="black"/>
<path d="M136.978 17.5308V17.4684V12.6839C136.978 12.4717 137.472 12.3008 138.086 12.3008C138.7 12.3008 139.195 12.4717 139.195 12.6839V17.4684V17.5308V22.3152C139.195 22.5274 138.7 22.6983 138.086 22.6983C137.472 22.6983 136.978 22.5274 136.978 22.3152V17.5308Z" fill="black"/>
<path d="M142.244 17.5306V17.4682V14.5369C142.244 14.3248 142.738 14.1538 143.352 14.1538C143.966 14.1538 144.461 14.3248 144.461 14.5369V17.4682V17.5306V20.462C144.461 20.6741 143.966 20.8451 143.352 20.8451C142.738 20.8451 142.244 20.6741 142.244 20.462V17.5306Z" fill="black"/>
<path d="M147.513 17.5305V17.4681V9.49151C147.513 9.27936 148.008 9.1084 148.621 9.1084C149.235 9.1084 149.73 9.27936 149.73 9.49151V17.4694V17.5318V25.5096C149.73 25.7218 149.235 25.8927 148.621 25.8927C148.008 25.8927 147.513 25.7218 147.513 25.5096V17.5305Z" fill="black"/>
<path d="M152.782 17.5308V17.4684V12.6839C152.782 12.4717 153.277 12.3008 153.891 12.3008C154.505 12.3008 155 12.4717 155 12.6839V17.4684V17.5308V22.3152C155 22.5274 154.505 22.6983 153.891 22.6983C153.277 22.6983 152.782 22.5274 152.782 22.3152V17.5308Z" fill="black"/>
</svg>
