<svg width="20" height="15" viewBox="0 0 20 15" fill="none" xmlns="http://www.w3.org/2000/svg">
<path fill-rule="evenodd" clip-rule="evenodd" d="M10.0004 3.05413C12.9022 3.05434 15.6929 4.1962 17.7964 6.2438C17.9544 6.40184 18.2083 6.3998 18.3643 6.23931L19.8774 4.67461C19.9569 4.59324 20.0008 4.48292 19.9998 4.36811C19.9998 4.2534 19.9539 4.14359 19.8744 4.06314C14.3542 -1.35438 5.64562 -1.35438 0.126443 4.06314C0.0458929 4.14349 0.00103701 4.2533 1.73952e-05 4.36801C-0.00100222 4.48282 0.0428363 4.59314 0.122366 4.67461L1.63648 6.23931C1.79248 6.4001 2.04535 6.40204 2.20339 6.2438C4.30685 4.196 7.09857 3.05413 10.0004 3.05413ZM10.0004 8.14446C11.5951 8.14436 13.1327 8.75123 14.3144 9.84712C14.4745 10.0027 14.7263 9.99935 14.8813 9.83957L16.3934 8.27497C16.474 8.19289 16.5178 8.08155 16.5168 7.96582C16.5158 7.8502 16.4688 7.73978 16.3873 7.65943C12.789 4.23097 7.21583 4.23097 3.61659 7.65943C3.53502 7.73978 3.48913 7.8502 3.48811 7.96593C3.48709 8.08165 3.53093 8.19299 3.61046 8.27497L5.12255 9.83957C5.27855 9.99935 5.5304 10.0027 5.68946 9.84712C6.87119 8.75195 8.40673 8.14507 10.0004 8.14446ZM13.0297 11.5695C13.0317 11.6855 12.9869 11.7973 12.9063 11.8786L10.291 14.5819C10.2145 14.6613 10.1095 14.706 10.0004 14.706C9.89129 14.706 9.78729 14.6613 9.7098 14.5819L7.09451 11.8786C7.01294 11.7973 6.9691 11.6854 6.97114 11.5695C6.97419 11.4534 7.02313 11.3435 7.10674 11.2658C8.77687 9.81887 11.2239 9.81887 12.8941 11.2658C12.9787 11.3436 13.0276 11.4535 13.0297 11.5695Z" fill="white"/>
</svg>
